solid model
  facet normal -1 0 0
    outer loop
      vertex 0 0 0
      vertex 0 0 7
      vertex 0 20 0
    endloop
  endfacet
  facet normal 0 0 -1
    outer loop
      vertex 0 0 0
      vertex 0 20 0
      vertex 4.21012 14.3047 0
    endloop
  endfacet
  facet normal 0 -1 0
    outer loop
      vertex 0 0 0
      vertex 12.7 0 0
      vertex 2.35 0 2
    endloop
  endfacet
  facet normal 0 -1 0
    outer loop
      vertex 0 0 0
      vertex 2.35 0 2
      vertex 0 0 7
    endloop
  endfacet
  facet normal -0 0 -1
    outer loop
      vertex 0 0 0
      vertex 4.1 5 0
      vertex 4.21012 4.30471 0
    endloop
  endfacet
  facet normal -0 0 -1
    outer loop
      vertex 0 0 0
      vertex 4.21012 14.3047 0
      vertex 4.21012 5.69529 0
    endloop
  endfacet
  facet normal -0 0 -1
    outer loop
      vertex 0 0 0
      vertex 4.21012 4.30471 0
      vertex 4.52971 3.67748 0
    endloop
  endfacet
  facet normal 0 0 -1
    outer loop
      vertex 0 0 0
      vertex 4.21012 5.69529 0
      vertex 4.1 5 0
    endloop
  endfacet
  facet normal -0 0 -1
    outer loop
      vertex 0 0 0
      vertex 4.52971 3.67748 0
      vertex 5.02748 3.17971 0
    endloop
  endfacet
  facet normal -0 0 -1
    outer loop
      vertex 0 0 0
      vertex 5.02748 3.17971 0
      vertex 5.65471 2.86012 0
    endloop
  endfacet
  facet normal -0 0 -1
    outer loop
      vertex 0 0 0
      vertex 5.65471 2.86012 0
      vertex 6.35 2.75 0
    endloop
  endfacet
  facet normal 0 0 -1
    outer loop
      vertex 0 0 0
      vertex 6.35 2.75 0
      vertex 12.7 0 0
    endloop
  endfacet
  facet normal -1 0 0
    outer loop
      vertex 0 0 7
      vertex 0 10 14.25
      vertex 0 20 7
    endloop
  endfacet
  facet normal -1 0 0
    outer loop
      vertex 0 0 7
      vertex 0 20 7
      vertex 0 20 0
    endloop
  endfacet
  facet normal -1 -0 0
    outer loop
      vertex 0 0 7
      vertex 0 5.47586 19.1289
      vertex 0 7.38459 16.1502
    endloop
  endfacet
  facet normal -1 0 0
    outer loop
      vertex 0 0 7
      vertex 0 7.38459 16.1502
      vertex 0 7.7752 15.3836
    endloop
  endfacet
  facet normal -1 -0 0
    outer loop
      vertex 0 0 7
      vertex 0 7.7752 15.3836
      vertex 0 8.38359 14.7752
    endloop
  endfacet
  facet normal -1 -0 0
    outer loop
      vertex 0 0 7
      vertex 0 8.38359 14.7752
      vertex 0 9.1502 14.3846
    endloop
  endfacet
  facet normal -1 -0 0
    outer loop
      vertex 0 0 7
      vertex 0 9.1502 14.3846
      vertex 0 10 14.25
    endloop
  endfacet
  facet normal 0 -1 0
    outer loop
      vertex 0 0 7
      vertex 2.35 0 2
      vertex 2.35 0 7
    endloop
  endfacet
  facet normal 0 -0.911419 0.411481
    outer loop
      vertex 0 0 7
      vertex 2.35 0 7
      vertex 2.35 5.47586 19.1289
    endloop
  endfacet
  facet normal 0 -0.911419 0.411481
    outer loop
      vertex 0 0 7
      vertex 2.35 5.47586 19.1289
      vertex 0 5.47586 19.1289
    endloop
  endfacet
  facet normal -1 0 0
    outer loop
      vertex 0 10 14.25
      vertex 0 10.8498 14.3846
      vertex 0 20 7
    endloop
  endfacet
  facet normal 0 -0.156434 0.987688
    outer loop
      vertex 0 10 14.25
      vertex 2.35 10 14.25
      vertex 0 10.8498 14.3846
    endloop
  endfacet
  facet normal -0 0.156434 0.987688
    outer loop
      vertex 0 10 14.25
      vertex 2.35 9.1502 14.3846
      vertex 2.35 10 14.25
    endloop
  endfacet
  facet normal -1 0 0
    outer loop
      vertex 0 10 19.75
      vertex 0 10 22
      vertex 0 10.6267 21.9606
    endloop
  endfacet
  facet normal -1 0 0
    outer loop
      vertex 0 10 19.75
      vertex 0 10.6267 21.9606
      vertex 0 10.8498 19.6154
    endloop
  endfacet
  facet normal -0 -0.156434 -0.987688
    outer loop
      vertex 0 10 19.75
      vertex 0 10.8498 19.6154
      vertex 2.35 10.8498 19.6154
    endloop
  endfacet
  facet normal 0 -0.156434 -0.987688
    outer loop
      vertex 0 10 19.75
      vertex 2.35 10.8498 19.6154
      vertex 2.35 10 19.75
    endloop
  endfacet
  facet normal 0 0.062791 0.998027
    outer loop
      vertex 0 10 22
      vertex 2.35 10 22
      vertex 0 10.6267 21.9606
    endloop
  endfacet
  facet normal 0 -0.0627909 0.998027
    outer loop
      vertex 0 10 22
      vertex 2.35 9.37333 21.9606
      vertex 2.35 10 22
    endloop
  endfacet
  facet normal -1 0 0
    outer loop
      vertex 0 10.6267 21.9606
      vertex 0 11.2434 21.8429
      vertex 0 10.8498 19.6154
    endloop
  endfacet
  facet normal -0 0.062791 0.998027
    outer loop
      vertex 0 10.6267 21.9606
      vertex 2.35 10 22
      vertex 2.35 10.6267 21.9606
    endloop
  endfacet
  facet normal 0 0.187383 0.982287
    outer loop
      vertex 0 10.6267 21.9606
      vertex 2.35 10.6267 21.9606
      vertex 0 11.2434 21.8429
    endloop
  endfacet
  facet normal -1 0 0
    outer loop
      vertex 0 10.8498 14.3846
      vertex 0 11.6164 14.7752
      vertex 0 20 7
    endloop
  endfacet
  facet normal 0 -0.156434 0.987688
    outer loop
      vertex 0 10.8498 14.3846
      vertex 2.35 10 14.25
      vertex 2.35 10.8498 14.3846
    endloop
  endfacet
  facet normal 0 -0.45399 0.891007
    outer loop
      vertex 0 10.8498 14.3846
      vertex 2.35 10.8498 14.3846
      vertex 0 11.6164 14.7752
    endloop
  endfacet
  facet normal -1 -0 0
    outer loop
      vertex 0 10.8498 19.6154
      vertex 0 11.2434 21.8429
      vertex 0 11.8406 21.6489
    endloop
  endfacet
  facet normal -0 -0.453991 -0.891006
    outer loop
      vertex 0 10.8498 19.6154
      vertex 0 11.6164 19.2248
      vertex 2.35 11.6164 19.2248
    endloop
  endfacet
  facet normal -1 -0 0
    outer loop
      vertex 0 10.8498 19.6154
      vertex 0 11.8406 21.6489
      vertex 0 12.4088 21.3815
    endloop
  endfacet
  facet normal -1 0 0
    outer loop
      vertex 0 10.8498 19.6154
      vertex 0 12.4088 21.3815
      vertex 0 11.6164 19.2248
    endloop
  endfacet
  facet normal 0 -0.453991 -0.891006
    outer loop
      vertex 0 10.8498 19.6154
      vertex 2.35 11.6164 19.2248
      vertex 2.35 10.8498 19.6154
    endloop
  endfacet
  facet normal -0 0.187383 0.982287
    outer loop
      vertex 0 11.2434 21.8429
      vertex 2.35 10.6267 21.9606
      vertex 2.35 11.2434 21.8429
    endloop
  endfacet
  facet normal 0 0.309016 0.951057
    outer loop
      vertex 0 11.2434 21.8429
      vertex 2.35 11.2434 21.8429
      vertex 0 11.8406 21.6489
    endloop
  endfacet
  facet normal -1 0 0
    outer loop
      vertex 0 11.6164 14.7752
      vertex 0 12.2248 15.3836
      vertex 0 20 7
    endloop
  endfacet
  facet normal 0 -0.45399 0.891007
    outer loop
      vertex 0 11.6164 14.7752
      vertex 2.35 10.8498 14.3846
      vertex 2.35 11.6164 14.7752
    endloop
  endfacet
  facet normal 0 -0.707107 0.707107
    outer loop
      vertex 0 11.6164 14.7752
      vertex 2.35 11.6164 14.7752
      vertex 2.35 12.2248 15.3836
    endloop
  endfacet
  facet normal 0 -0.707107 0.707107
    outer loop
      vertex 0 11.6164 14.7752
      vertex 2.35 12.2248 15.3836
      vertex 0 12.2248 15.3836
    endloop
  endfacet
  facet normal 0 -0.707107 -0.707107
    outer loop
      vertex 0 11.6164 19.2248
      vertex 0 12.2248 18.6164
      vertex 2.35 11.6164 19.2248
    endloop
  endfacet
  facet normal -1 -0 0
    outer loop
      vertex 0 11.6164 19.2248
      vertex 0 12.4088 21.3815
      vertex 0 12.9389 21.0451
    endloop
  endfacet
  facet normal -1 -0 0
    outer loop
      vertex 0 11.6164 19.2248
      vertex 0 12.9389 21.0451
      vertex 0 13.4227 20.6448
    endloop
  endfacet
  facet normal -1 0 0
    outer loop
      vertex 0 11.6164 19.2248
      vertex 0 13.4227 20.6448
      vertex 0 12.2248 18.6164
    endloop
  endfacet
  facet normal -0 0.309016 0.951057
    outer loop
      vertex 0 11.8406 21.6489
      vertex 2.35 11.2434 21.8429
      vertex 2.35 11.8406 21.6489
    endloop
  endfacet
  facet normal 0 0.425779 0.904827
    outer loop
      vertex 0 11.8406 21.6489
      vertex 2.35 11.8406 21.6489
      vertex 0 12.4088 21.3815
    endloop
  endfacet
  facet normal -1 0 0
    outer loop
      vertex 0 12.2248 15.3836
      vertex 0 12.6154 16.1502
      vertex 0 20 7
    endloop
  endfacet
  facet normal 0 -0.891007 0.45399
    outer loop
      vertex 0 12.2248 15.3836
      vertex 2.35 12.2248 15.3836
      vertex 2.35 12.6154 16.1502
    endloop
  endfacet
  facet normal 0 -0.891007 0.45399
    outer loop
      vertex 0 12.2248 15.3836
      vertex 2.35 12.6154 16.1502
      vertex 0 12.6154 16.1502
    endloop
  endfacet
  facet normal 0 -0.891007 -0.45399
    outer loop
      vertex 0 12.2248 18.6164
      vertex 0 12.6154 17.8498
      vertex 2.35 12.2248 18.6164
    endloop
  endfacet
  facet normal -1 -0 0
    outer loop
      vertex 0 12.2248 18.6164
      vertex 0 13.4227 20.6448
      vertex 0 13.8526 20.1871
    endloop
  endfacet
  facet normal -1 -0 0
    outer loop
      vertex 0 12.2248 18.6164
      vertex 0 13.8526 20.1871
      vertex 0 14.2216 19.6791
    endloop
  endfacet
  facet normal -1 -0 0
    outer loop
      vertex 0 12.2248 18.6164
      vertex 0 14.2216 19.6791
      vertex 0 14.5241 19.1289
    endloop
  endfacet
  facet normal -1 0 0
    outer loop
      vertex 0 12.2248 18.6164
      vertex 0 14.5241 19.1289
      vertex 0 12.6154 17.8498
    endloop
  endfacet
  facet normal 0 -0.707107 -0.707107
    outer loop
      vertex 0 12.2248 18.6164
      vertex 2.35 12.2248 18.6164
      vertex 2.35 11.6164 19.2248
    endloop
  endfacet
  facet normal -0 0.425779 0.904827
    outer loop
      vertex 0 12.4088 21.3815
      vertex 2.35 11.8406 21.6489
      vertex 2.35 12.4088 21.3815
    endloop
  endfacet
  facet normal 0 0.535825 0.844329
    outer loop
      vertex 0 12.4088 21.3815
      vertex 2.35 12.4088 21.3815
      vertex 0 12.9389 21.0451
    endloop
  endfacet
  facet normal -1 0 -0
    outer loop
      vertex 0 12.6154 16.1502
      vertex 0 12.75 17
      vertex 0 14.5241 19.1289
    endloop
  endfacet
  facet normal -1 0 0
    outer loop
      vertex 0 12.6154 16.1502
      vertex 0 14.5241 19.1289
      vertex 0 20 7
    endloop
  endfacet
  facet normal 0 -0.987688 0.156435
    outer loop
      vertex 0 12.6154 16.1502
      vertex 2.35 12.6154 16.1502
      vertex 2.35 12.75 17
    endloop
  endfacet
  facet normal 0 -0.987688 0.156435
    outer loop
      vertex 0 12.6154 16.1502
      vertex 2.35 12.75 17
      vertex 0 12.75 17
    endloop
  endfacet
  facet normal 0 -0.987688 -0.156435
    outer loop
      vertex 0 12.6154 17.8498
      vertex 0 12.75 17
      vertex 2.35 12.6154 17.8498
    endloop
  endfacet
  facet normal -1 0 0
    outer loop
      vertex 0 12.6154 17.8498
      vertex 0 14.5241 19.1289
      vertex 0 12.75 17
    endloop
  endfacet
  facet normal 0 -0.891007 -0.45399
    outer loop
      vertex 0 12.6154 17.8498
      vertex 2.35 12.6154 17.8498
      vertex 2.35 12.2248 18.6164
    endloop
  endfacet
  facet normal 0 -0.987688 -0.156435
    outer loop
      vertex 0 12.75 17
      vertex 2.35 12.75 17
      vertex 2.35 12.6154 17.8498
    endloop
  endfacet
  facet normal -0 0.535825 0.844329
    outer loop
      vertex 0 12.9389 21.0451
      vertex 2.35 12.4088 21.3815
      vertex 2.35 12.9389 21.0451
    endloop
  endfacet
  facet normal 0 0.637424 0.770513
    outer loop
      vertex 0 12.9389 21.0451
      vertex 2.35 12.9389 21.0451
      vertex 0 13.4227 20.6448
    endloop
  endfacet
  facet normal -0 0.637424 0.770513
    outer loop
      vertex 0 13.4227 20.6448
      vertex 2.35 12.9389 21.0451
      vertex 2.35 13.4227 20.6448
    endloop
  endfacet
  facet normal 0 0.72897 0.684545
    outer loop
      vertex 0 13.4227 20.6448
      vertex 2.35 13.4227 20.6448
      vertex 2.35 13.8526 20.1871
    endloop
  endfacet
  facet normal 0 0.72897 0.684545
    outer loop
      vertex 0 13.4227 20.6448
      vertex 2.35 13.8526 20.1871
      vertex 0 13.8526 20.1871
    endloop
  endfacet
  facet normal 0 0.809016 0.587786
    outer loop
      vertex 0 13.8526 20.1871
      vertex 2.35 13.8526 20.1871
      vertex 2.35 14.2216 19.6791
    endloop
  endfacet
  facet normal 0 0.809016 0.587786
    outer loop
      vertex 0 13.8526 20.1871
      vertex 2.35 14.2216 19.6791
      vertex 0 14.2216 19.6791
    endloop
  endfacet
  facet normal 0 0.876307 0.481753
    outer loop
      vertex 0 14.2216 19.6791
      vertex 2.35 14.2216 19.6791
      vertex 2.35 14.5241 19.1289
    endloop
  endfacet
  facet normal 0 0.876307 0.481753
    outer loop
      vertex 0 14.2216 19.6791
      vertex 2.35 14.5241 19.1289
      vertex 0 14.5241 19.1289
    endloop
  endfacet
  facet normal 0 0.911419 0.411481
    outer loop
      vertex 0 14.5241 19.1289
      vertex 2.35 14.5241 19.1289
      vertex 2.35 20 7
    endloop
  endfacet
  facet normal 0 0.911419 0.411481
    outer loop
      vertex 0 14.5241 19.1289
      vertex 2.35 20 7
      vertex 0 20 7
    endloop
  endfacet
  facet normal 0 1 0
    outer loop
      vertex 0 20 0
      vertex 0 20 7
      vertex 2.35 20 2
    endloop
  endfacet
  facet normal 0 0 -1
    outer loop
      vertex 0 20 0
      vertex 12.7 20 0
      vertex 6.35 17.25 0
    endloop
  endfacet
  facet normal 0 1 0
    outer loop
      vertex 0 20 0
      vertex 2.35 20 2
      vertex 12.7 20 0
    endloop
  endfacet
  facet normal 0 0 -1
    outer loop
      vertex 0 20 0
      vertex 4.1 15 0
      vertex 4.21012 14.3047 0
    endloop
  endfacet
  facet normal 0 0 -1
    outer loop
      vertex 0 20 0
      vertex 4.21012 15.6953 0
      vertex 4.1 15 0
    endloop
  endfacet
  facet normal 0 0 -1
    outer loop
      vertex 0 20 0
      vertex 4.52971 16.3225 0
      vertex 4.21012 15.6953 0
    endloop
  endfacet
  facet normal 0 0 -1
    outer loop
      vertex 0 20 0
      vertex 5.02748 16.8203 0
      vertex 4.52971 16.3225 0
    endloop
  endfacet
  facet normal 0 0 -1
    outer loop
      vertex 0 20 0
      vertex 5.65471 17.1399 0
      vertex 5.02748 16.8203 0
    endloop
  endfacet
  facet normal 0 0 -1
    outer loop
      vertex 0 20 0
      vertex 6.35 17.25 0
      vertex 5.65471 17.1399 0
    endloop
  endfacet
  facet normal 0 1 -0
    outer loop
      vertex 0 20 7
      vertex 2.35 20 7
      vertex 2.35 20 2
    endloop
  endfacet
  facet normal -1 0 0
    outer loop
      vertex 0 5.47586 19.1289
      vertex 0 5.77836 19.6791
      vertex 0 7.38459 17.8498
    endloop
  endfacet
  facet normal -1 0 0
    outer loop
      vertex 0 5.47586 19.1289
      vertex 0 7.25 17
      vertex 0 7.38459 16.1502
    endloop
  endfacet
  facet normal -1 0 0
    outer loop
      vertex 0 5.47586 19.1289
      vertex 0 7.38459 17.8498
      vertex 0 7.25 17
    endloop
  endfacet
  facet normal 0 -0.876307 0.481753
    outer loop
      vertex 0 5.47586 19.1289
      vertex 2.35 5.47586 19.1289
      vertex 2.35 5.77836 19.6791
    endloop
  endfacet
  facet normal 0 -0.876307 0.481753
    outer loop
      vertex 0 5.47586 19.1289
      vertex 2.35 5.77836 19.6791
      vertex 0 5.77836 19.6791
    endloop
  endfacet
  facet normal -1 0 0
    outer loop
      vertex 0 5.77836 19.6791
      vertex 0 6.14743 20.1871
      vertex 0 7.38459 17.8498
    endloop
  endfacet
  facet normal 0 -0.809016 0.587786
    outer loop
      vertex 0 5.77836 19.6791
      vertex 2.35 5.77836 19.6791
      vertex 2.35 6.14743 20.1871
    endloop
  endfacet
  facet normal 0 -0.809016 0.587786
    outer loop
      vertex 0 5.77836 19.6791
      vertex 2.35 6.14743 20.1871
      vertex 0 6.14743 20.1871
    endloop
  endfacet
  facet normal -1 0 0
    outer loop
      vertex 0 6.14743 20.1871
      vertex 0 6.57726 20.6448
      vertex 0 7.38459 17.8498
    endloop
  endfacet
  facet normal 0 -0.72897 0.684545
    outer loop
      vertex 0 6.14743 20.1871
      vertex 2.35 6.14743 20.1871
      vertex 2.35 6.57726 20.6448
    endloop
  endfacet
  facet normal 0 -0.72897 0.684545
    outer loop
      vertex 0 6.14743 20.1871
      vertex 2.35 6.57726 20.6448
      vertex 0 6.57726 20.6448
    endloop
  endfacet
  facet normal -1 0 0
    outer loop
      vertex 0 6.57726 20.6448
      vertex 0 7.06107 21.0451
      vertex 0 8.38359 19.2248
    endloop
  endfacet
  facet normal -1 0 0
    outer loop
      vertex 0 6.57726 20.6448
      vertex 0 7.7752 18.6164
      vertex 0 7.38459 17.8498
    endloop
  endfacet
  facet normal -1 0 0
    outer loop
      vertex 0 6.57726 20.6448
      vertex 0 8.38359 19.2248
      vertex 0 7.7752 18.6164
    endloop
  endfacet
  facet normal 0 -0.637424 0.770513
    outer loop
      vertex 0 6.57726 20.6448
      vertex 2.35 6.57726 20.6448
      vertex 0 7.06107 21.0451
    endloop
  endfacet
  facet normal -1 0 0
    outer loop
      vertex 0 7.06107 21.0451
      vertex 0 7.59123 21.3815
      vertex 0 8.38359 19.2248
    endloop
  endfacet
  facet normal 0 -0.637424 0.770513
    outer loop
      vertex 0 7.06107 21.0451
      vertex 2.35 6.57726 20.6448
      vertex 2.35 7.06107 21.0451
    endloop
  endfacet
  facet normal 0 -0.535825 0.844329
    outer loop
      vertex 0 7.06107 21.0451
      vertex 2.35 7.06107 21.0451
      vertex 0 7.59123 21.3815
    endloop
  endfacet
  facet normal 0 0.987688 -0.156434
    outer loop
      vertex 0 7.25 17
      vertex 0 7.38459 17.8498
      vertex 2.35 7.25 17
    endloop
  endfacet
  facet normal 0 0.987688 0.156434
    outer loop
      vertex 0 7.25 17
      vertex 2.35 7.25 17
      vertex 2.35 7.38459 16.1502
    endloop
  endfacet
  facet normal 0 0.987688 0.156434
    outer loop
      vertex 0 7.25 17
      vertex 2.35 7.38459 16.1502
      vertex 0 7.38459 16.1502
    endloop
  endfacet
  facet normal 0 0.891007 0.45399
    outer loop
      vertex 0 7.38459 16.1502
      vertex 2.35 7.38459 16.1502
      vertex 2.35 7.7752 15.3836
    endloop
  endfacet
  facet normal 0 0.891007 0.45399
    outer loop
      vertex 0 7.38459 16.1502
      vertex 2.35 7.7752 15.3836
      vertex 0 7.7752 15.3836
    endloop
  endfacet
  facet normal 0 0.891007 -0.45399
    outer loop
      vertex 0 7.38459 17.8498
      vertex 0 7.7752 18.6164
      vertex 2.35 7.38459 17.8498
    endloop
  endfacet
  facet normal 0 0.987688 -0.156434
    outer loop
      vertex 0 7.38459 17.8498
      vertex 2.35 7.38459 17.8498
      vertex 2.35 7.25 17
    endloop
  endfacet
  facet normal -1 0 0
    outer loop
      vertex 0 7.59123 21.3815
      vertex 0 8.15938 21.6489
      vertex 0 9.1502 19.6154
    endloop
  endfacet
  facet normal -1 0 0
    outer loop
      vertex 0 7.59123 21.3815
      vertex 0 9.1502 19.6154
      vertex 0 8.38359 19.2248
    endloop
  endfacet
  facet normal 0 -0.535825 0.844329
    outer loop
      vertex 0 7.59123 21.3815
      vertex 2.35 7.06107 21.0451
      vertex 2.35 7.59123 21.3815
    endloop
  endfacet
  facet normal 0 -0.425779 0.904827
    outer loop
      vertex 0 7.59123 21.3815
      vertex 2.35 7.59123 21.3815
      vertex 0 8.15938 21.6489
    endloop
  endfacet
  facet normal 0 0.707107 0.707107
    outer loop
      vertex 0 7.7752 15.3836
      vertex 2.35 7.7752 15.3836
      vertex 2.35 8.38359 14.7752
    endloop
  endfacet
  facet normal 0 0.707107 0.707107
    outer loop
      vertex 0 7.7752 15.3836
      vertex 2.35 8.38359 14.7752
      vertex 0 8.38359 14.7752
    endloop
  endfacet
  facet normal 0 0.707107 -0.707107
    outer loop
      vertex 0 7.7752 18.6164
      vertex 0 8.38359 19.2248
      vertex 2.35 7.7752 18.6164
    endloop
  endfacet
  facet normal 0 0.891007 -0.45399
    outer loop
      vertex 0 7.7752 18.6164
      vertex 2.35 7.7752 18.6164
      vertex 2.35 7.38459 17.8498
    endloop
  endfacet
  facet normal -1 0 0
    outer loop
      vertex 0 8.15938 21.6489
      vertex 0 8.75655 21.8429
      vertex 0 9.1502 19.6154
    endloop
  endfacet
  facet normal 0 -0.425779 0.904827
    outer loop
      vertex 0 8.15938 21.6489
      vertex 2.35 7.59123 21.3815
      vertex 2.35 8.15938 21.6489
    endloop
  endfacet
  facet normal 0 -0.309016 0.951057
    outer loop
      vertex 0 8.15938 21.6489
      vertex 2.35 8.15938 21.6489
      vertex 0 8.75655 21.8429
    endloop
  endfacet
  facet normal 0 0.45399 0.891007
    outer loop
      vertex 0 8.38359 14.7752
      vertex 2.35 8.38359 14.7752
      vertex 0 9.1502 14.3846
    endloop
  endfacet
  facet normal 0 0.453991 -0.891006
    outer loop
      vertex 0 8.38359 19.2248
      vertex 0 9.1502 19.6154
      vertex 2.35 9.1502 19.6154
    endloop
  endfacet
  facet normal 0 0.707107 -0.707107
    outer loop
      vertex 0 8.38359 19.2248
      vertex 2.35 8.38359 19.2248
      vertex 2.35 7.7752 18.6164
    endloop
  endfacet
  facet normal 0 0.453991 -0.891006
    outer loop
      vertex 0 8.38359 19.2248
      vertex 2.35 9.1502 19.6154
      vertex 2.35 8.38359 19.2248
    endloop
  endfacet
  facet normal -1 0 0
    outer loop
      vertex 0 8.75655 21.8429
      vertex 0 9.37333 21.9606
      vertex 0 9.1502 19.6154
    endloop
  endfacet
  facet normal 0 -0.309016 0.951057
    outer loop
      vertex 0 8.75655 21.8429
      vertex 2.35 8.15938 21.6489
      vertex 2.35 8.75655 21.8429
    endloop
  endfacet
  facet normal 0 -0.187383 0.982287
    outer loop
      vertex 0 8.75655 21.8429
      vertex 2.35 8.75655 21.8429
      vertex 0 9.37333 21.9606
    endloop
  endfacet
  facet normal -0 0.45399 0.891007
    outer loop
      vertex 0 9.1502 14.3846
      vertex 2.35 8.38359 14.7752
      vertex 2.35 9.1502 14.3846
    endloop
  endfacet
  facet normal 0 0.156434 0.987688
    outer loop
      vertex 0 9.1502 14.3846
      vertex 2.35 9.1502 14.3846
      vertex 0 10 14.25
    endloop
  endfacet
  facet normal 0 0.156434 -0.987688
    outer loop
      vertex 0 9.1502 19.6154
      vertex 0 10 19.75
      vertex 2.35 10 19.75
    endloop
  endfacet
  facet normal -1 0 0
    outer loop
      vertex 0 9.1502 19.6154
      vertex 0 9.37333 21.9606
      vertex 0 10 19.75
    endloop
  endfacet
  facet normal 0 0.156434 -0.987688
    outer loop
      vertex 0 9.1502 19.6154
      vertex 2.35 10 19.75
      vertex 2.35 9.1502 19.6154
    endloop
  endfacet
  facet normal -1 0 0
    outer loop
      vertex 0 9.37333 21.9606
      vertex 0 10 22
      vertex 0 10 19.75
    endloop
  endfacet
  facet normal 0 -0.187383 0.982287
    outer loop
      vertex 0 9.37333 21.9606
      vertex 2.35 8.75655 21.8429
      vertex 2.35 9.37333 21.9606
    endloop
  endfacet
  facet normal 0 -0.0627909 0.998027
    outer loop
      vertex 0 9.37333 21.9606
      vertex 2.35 9.37333 21.9606
      vertex 0 10 22
    endloop
  endfacet
  facet normal -1 0 0
    outer loop
      vertex 10.35 0 2
      vertex 10.35 0 7
      vertex 10.35 10 14.25
    endloop
  endfacet
  facet normal -1 0 0
    outer loop
      vertex 10.35 0 2
      vertex 10.35 10 14.25
      vertex 10.35 20 2
    endloop
  endfacet
  facet normal 0 -1 0
    outer loop
      vertex 10.35 0 2
      vertex 12.7 0 0
      vertex 12.7 0 2
    endloop
  endfacet
  facet normal 0 -1 -0
    outer loop
      vertex 10.35 0 2
      vertex 12.7 0 2
      vertex 12.7 0 7
    endloop
  endfacet
  facet normal 0 -1 0
    outer loop
      vertex 10.35 0 2
      vertex 12.7 0 7
      vertex 10.35 0 7
    endloop
  endfacet
  facet normal -1 -0 0
    outer loop
      vertex 10.35 0 7
      vertex 10.35 5.47586 19.1289
      vertex 10.35 7.38459 16.1502
    endloop
  endfacet
  facet normal -1 0 0
    outer loop
      vertex 10.35 0 7
      vertex 10.35 7.38459 16.1502
      vertex 10.35 7.7752 15.3836
    endloop
  endfacet
  facet normal -1 -0 0
    outer loop
      vertex 10.35 0 7
      vertex 10.35 7.7752 15.3836
      vertex 10.35 8.38359 14.7752
    endloop
  endfacet
  facet normal -1 -0 0
    outer loop
      vertex 10.35 0 7
      vertex 10.35 8.38359 14.7752
      vertex 10.35 9.1502 14.3846
    endloop
  endfacet
  facet normal -1 -0 0
    outer loop
      vertex 10.35 0 7
      vertex 10.35 9.1502 14.3846
      vertex 10.35 10 14.25
    endloop
  endfacet
  facet normal 0 -0.911419 0.411481
    outer loop
      vertex 10.35 0 7
      vertex 12.7 0 7
      vertex 12.7 5.47586 19.1289
    endloop
  endfacet
  facet normal 0 -0.911419 0.411481
    outer loop
      vertex 10.35 0 7
      vertex 12.7 5.47586 19.1289
      vertex 10.35 5.47586 19.1289
    endloop
  endfacet
  facet normal -1 0 0
    outer loop
      vertex 10.35 10 14.25
      vertex 10.35 10.8498 14.3846
      vertex 10.35 20 7
    endloop
  endfacet
  facet normal -1 0 0
    outer loop
      vertex 10.35 10 14.25
      vertex 10.35 20 7
      vertex 10.35 20 2
    endloop
  endfacet
  facet normal 0 -0.156434 0.987688
    outer loop
      vertex 10.35 10 14.25
      vertex 12.7 10 14.25
      vertex 10.35 10.8498 14.3846
    endloop
  endfacet
  facet normal -0 0.156434 0.987688
    outer loop
      vertex 10.35 10 14.25
      vertex 12.7 9.1502 14.3846
      vertex 12.7 10 14.25
    endloop
  endfacet
  facet normal -1 0 0
    outer loop
      vertex 10.35 10 19.75
      vertex 10.35 10 22
      vertex 10.35 10.6267 21.9606
    endloop
  endfacet
  facet normal -1 0 0
    outer loop
      vertex 10.35 10 19.75
      vertex 10.35 10.6267 21.9606
      vertex 10.35 10.8498 19.6154
    endloop
  endfacet
  facet normal -0 -0.156434 -0.987688
    outer loop
      vertex 10.35 10 19.75
      vertex 10.35 10.8498 19.6154
      vertex 12.7 10.8498 19.6154
    endloop
  endfacet
  facet normal 0 -0.156434 -0.987688
    outer loop
      vertex 10.35 10 19.75
      vertex 12.7 10.8498 19.6154
      vertex 12.7 10 19.75
    endloop
  endfacet
  facet normal 0 0.062791 0.998027
    outer loop
      vertex 10.35 10 22
      vertex 12.7 10 22
      vertex 10.35 10.6267 21.9606
    endloop
  endfacet
  facet normal 0 -0.0627909 0.998027
    outer loop
      vertex 10.35 10 22
      vertex 12.7 9.37333 21.9606
      vertex 12.7 10 22
    endloop
  endfacet
  facet normal -1 0 0
    outer loop
      vertex 10.35 10.6267 21.9606
      vertex 10.35 11.2434 21.8429
      vertex 10.35 10.8498 19.6154
    endloop
  endfacet
  facet normal -0 0.062791 0.998027
    outer loop
      vertex 10.35 10.6267 21.9606
      vertex 12.7 10 22
      vertex 12.7 10.6267 21.9606
    endloop
  endfacet
  facet normal 0 0.187383 0.982287
    outer loop
      vertex 10.35 10.6267 21.9606
      vertex 12.7 10.6267 21.9606
      vertex 10.35 11.2434 21.8429
    endloop
  endfacet
  facet normal -1 0 0
    outer loop
      vertex 10.35 10.8498 14.3846
      vertex 10.35 11.6164 14.7752
      vertex 10.35 20 7
    endloop
  endfacet
  facet normal 0 -0.156434 0.987688
    outer loop
      vertex 10.35 10.8498 14.3846
      vertex 12.7 10 14.25
      vertex 12.7 10.8498 14.3846
    endloop
  endfacet
  facet normal 0 -0.45399 0.891007
    outer loop
      vertex 10.35 10.8498 14.3846
      vertex 12.7 10.8498 14.3846
      vertex 10.35 11.6164 14.7752
    endloop
  endfacet
  facet normal -1 -0 0
    outer loop
      vertex 10.35 10.8498 19.6154
      vertex 10.35 11.2434 21.8429
      vertex 10.35 11.8406 21.6489
    endloop
  endfacet
  facet normal -0 -0.453991 -0.891006
    outer loop
      vertex 10.35 10.8498 19.6154
      vertex 10.35 11.6164 19.2248
      vertex 12.7 11.6164 19.2248
    endloop
  endfacet
  facet normal -1 -0 0
    outer loop
      vertex 10.35 10.8498 19.6154
      vertex 10.35 11.8406 21.6489
      vertex 10.35 12.4088 21.3815
    endloop
  endfacet
  facet normal -1 0 0
    outer loop
      vertex 10.35 10.8498 19.6154
      vertex 10.35 12.4088 21.3815
      vertex 10.35 11.6164 19.2248
    endloop
  endfacet
  facet normal 0 -0.453991 -0.891006
    outer loop
      vertex 10.35 10.8498 19.6154
      vertex 12.7 11.6164 19.2248
      vertex 12.7 10.8498 19.6154
    endloop
  endfacet
  facet normal -0 0.187383 0.982287
    outer loop
      vertex 10.35 11.2434 21.8429
      vertex 12.7 10.6267 21.9606
      vertex 12.7 11.2434 21.8429
    endloop
  endfacet
  facet normal 0 0.309016 0.951057
    outer loop
      vertex 10.35 11.2434 21.8429
      vertex 12.7 11.2434 21.8429
      vertex 10.35 11.8406 21.6489
    endloop
  endfacet
  facet normal -1 0 0
    outer loop
      vertex 10.35 11.6164 14.7752
      vertex 10.35 12.2248 15.3836
      vertex 10.35 20 7
    endloop
  endfacet
  facet normal 0 -0.45399 0.891007
    outer loop
      vertex 10.35 11.6164 14.7752
      vertex 12.7 10.8498 14.3846
      vertex 12.7 11.6164 14.7752
    endloop
  endfacet
  facet normal 0 -0.707107 0.707107
    outer loop
      vertex 10.35 11.6164 14.7752
      vertex 12.7 11.6164 14.7752
      vertex 12.7 12.2248 15.3836
    endloop
  endfacet
  facet normal 0 -0.707107 0.707107
    outer loop
      vertex 10.35 11.6164 14.7752
      vertex 12.7 12.2248 15.3836
      vertex 10.35 12.2248 15.3836
    endloop
  endfacet
  facet normal 0 -0.707107 -0.707107
    outer loop
      vertex 10.35 11.6164 19.2248
      vertex 10.35 12.2248 18.6164
      vertex 12.7 11.6164 19.2248
    endloop
  endfacet
  facet normal -1 -0 0
    outer loop
      vertex 10.35 11.6164 19.2248
      vertex 10.35 12.4088 21.3815
      vertex 10.35 12.9389 21.0451
    endloop
  endfacet
  facet normal -1 -0 0
    outer loop
      vertex 10.35 11.6164 19.2248
      vertex 10.35 12.9389 21.0451
      vertex 10.35 13.4227 20.6448
    endloop
  endfacet
  facet normal -1 0 0
    outer loop
      vertex 10.35 11.6164 19.2248
      vertex 10.35 13.4227 20.6448
      vertex 10.35 12.2248 18.6164
    endloop
  endfacet
  facet normal -0 0.309016 0.951057
    outer loop
      vertex 10.35 11.8406 21.6489
      vertex 12.7 11.2434 21.8429
      vertex 12.7 11.8406 21.6489
    endloop
  endfacet
  facet normal 0 0.425779 0.904827
    outer loop
      vertex 10.35 11.8406 21.6489
      vertex 12.7 11.8406 21.6489
      vertex 10.35 12.4088 21.3815
    endloop
  endfacet
  facet normal -1 0 0
    outer loop
      vertex 10.35 12.2248 15.3836
      vertex 10.35 12.6154 16.1502
      vertex 10.35 20 7
    endloop
  endfacet
  facet normal 0 -0.891007 0.45399
    outer loop
      vertex 10.35 12.2248 15.3836
      vertex 12.7 12.2248 15.3836
      vertex 12.7 12.6154 16.1502
    endloop
  endfacet
  facet normal 0 -0.891007 0.45399
    outer loop
      vertex 10.35 12.2248 15.3836
      vertex 12.7 12.6154 16.1502
      vertex 10.35 12.6154 16.1502
    endloop
  endfacet
  facet normal 0 -0.891007 -0.45399
    outer loop
      vertex 10.35 12.2248 18.6164
      vertex 10.35 12.6154 17.8498
      vertex 12.7 12.2248 18.6164
    endloop
  endfacet
  facet normal -1 -0 0
    outer loop
      vertex 10.35 12.2248 18.6164
      vertex 10.35 13.4227 20.6448
      vertex 10.35 13.8526 20.1871
    endloop
  endfacet
  facet normal -1 -0 0
    outer loop
      vertex 10.35 12.2248 18.6164
      vertex 10.35 13.8526 20.1871
      vertex 10.35 14.2216 19.6791
    endloop
  endfacet
  facet normal -1 -0 0
    outer loop
      vertex 10.35 12.2248 18.6164
      vertex 10.35 14.2216 19.6791
      vertex 10.35 14.5241 19.1289
    endloop
  endfacet
  facet normal -1 0 0
    outer loop
      vertex 10.35 12.2248 18.6164
      vertex 10.35 14.5241 19.1289
      vertex 10.35 12.6154 17.8498
    endloop
  endfacet
  facet normal 0 -0.707107 -0.707107
    outer loop
      vertex 10.35 12.2248 18.6164
      vertex 12.7 12.2248 18.6164
      vertex 12.7 11.6164 19.2248
    endloop
  endfacet
  facet normal -0 0.425779 0.904827
    outer loop
      vertex 10.35 12.4088 21.3815
      vertex 12.7 11.8406 21.6489
      vertex 12.7 12.4088 21.3815
    endloop
  endfacet
  facet normal 0 0.535825 0.844329
    outer loop
      vertex 10.35 12.4088 21.3815
      vertex 12.7 12.4088 21.3815
      vertex 10.35 12.9389 21.0451
    endloop
  endfacet
  facet normal -1 0 -0
    outer loop
      vertex 10.35 12.6154 16.1502
      vertex 10.35 12.75 17
      vertex 10.35 14.5241 19.1289
    endloop
  endfacet
  facet normal -1 0 0
    outer loop
      vertex 10.35 12.6154 16.1502
      vertex 10.35 14.5241 19.1289
      vertex 10.35 20 7
    endloop
  endfacet
  facet normal 0 -0.987688 0.156435
    outer loop
      vertex 10.35 12.6154 16.1502
      vertex 12.7 12.6154 16.1502
      vertex 12.7 12.75 17
    endloop
  endfacet
  facet normal 0 -0.987688 0.156435
    outer loop
      vertex 10.35 12.6154 16.1502
      vertex 12.7 12.75 17
      vertex 10.35 12.75 17
    endloop
  endfacet
  facet normal 0 -0.987688 -0.156435
    outer loop
      vertex 10.35 12.6154 17.8498
      vertex 10.35 12.75 17
      vertex 12.7 12.6154 17.8498
    endloop
  endfacet
  facet normal -1 0 0
    outer loop
      vertex 10.35 12.6154 17.8498
      vertex 10.35 14.5241 19.1289
      vertex 10.35 12.75 17
    endloop
  endfacet
  facet normal 0 -0.891007 -0.45399
    outer loop
      vertex 10.35 12.6154 17.8498
      vertex 12.7 12.6154 17.8498
      vertex 12.7 12.2248 18.6164
    endloop
  endfacet
  facet normal 0 -0.987688 -0.156435
    outer loop
      vertex 10.35 12.75 17
      vertex 12.7 12.75 17
      vertex 12.7 12.6154 17.8498
    endloop
  endfacet
  facet normal -0 0.535825 0.844329
    outer loop
      vertex 10.35 12.9389 21.0451
      vertex 12.7 12.4088 21.3815
      vertex 12.7 12.9389 21.0451
    endloop
  endfacet
  facet normal 0 0.637424 0.770513
    outer loop
      vertex 10.35 12.9389 21.0451
      vertex 12.7 12.9389 21.0451
      vertex 10.35 13.4227 20.6448
    endloop
  endfacet
  facet normal -0 0.637424 0.770513
    outer loop
      vertex 10.35 13.4227 20.6448
      vertex 12.7 12.9389 21.0451
      vertex 12.7 13.4227 20.6448
    endloop
  endfacet
  facet normal 0 0.72897 0.684545
    outer loop
      vertex 10.35 13.4227 20.6448
      vertex 12.7 13.4227 20.6448
      vertex 12.7 13.8526 20.1871
    endloop
  endfacet
  facet normal 0 0.72897 0.684545
    outer loop
      vertex 10.35 13.4227 20.6448
      vertex 12.7 13.8526 20.1871
      vertex 10.35 13.8526 20.1871
    endloop
  endfacet
  facet normal 0 0.809016 0.587786
    outer loop
      vertex 10.35 13.8526 20.1871
      vertex 12.7 13.8526 20.1871
      vertex 12.7 14.2216 19.6791
    endloop
  endfacet
  facet normal 0 0.809016 0.587786
    outer loop
      vertex 10.35 13.8526 20.1871
      vertex 12.7 14.2216 19.6791
      vertex 10.35 14.2216 19.6791
    endloop
  endfacet
  facet normal 0 0.876307 0.481753
    outer loop
      vertex 10.35 14.2216 19.6791
      vertex 12.7 14.2216 19.6791
      vertex 12.7 14.5241 19.1289
    endloop
  endfacet
  facet normal 0 0.876307 0.481753
    outer loop
      vertex 10.35 14.2216 19.6791
      vertex 12.7 14.5241 19.1289
      vertex 10.35 14.5241 19.1289
    endloop
  endfacet
  facet normal 0 0.911419 0.411481
    outer loop
      vertex 10.35 14.5241 19.1289
      vertex 12.7 14.5241 19.1289
      vertex 12.7 20 7
    endloop
  endfacet
  facet normal 0 0.911419 0.411481
    outer loop
      vertex 10.35 14.5241 19.1289
      vertex 12.7 20 7
      vertex 10.35 20 7
    endloop
  endfacet
  facet normal 0 1 0
    outer loop
      vertex 10.35 20 2
      vertex 10.35 20 7
      vertex 12.7 20 2
    endloop
  endfacet
  facet normal 0 1 -0
    outer loop
      vertex 10.35 20 2
      vertex 12.7 20 2
      vertex 12.7 20 0
    endloop
  endfacet
  facet normal 0 1 -0
    outer loop
      vertex 10.35 20 7
      vertex 12.7 20 7
      vertex 12.7 20 2
    endloop
  endfacet
  facet normal -1 0 0
    outer loop
      vertex 10.35 5.47586 19.1289
      vertex 10.35 5.77836 19.6791
      vertex 10.35 7.38459 17.8498
    endloop
  endfacet
  facet normal -1 0 0
    outer loop
      vertex 10.35 5.47586 19.1289
      vertex 10.35 7.25 17
      vertex 10.35 7.38459 16.1502
    endloop
  endfacet
  facet normal -1 0 0
    outer loop
      vertex 10.35 5.47586 19.1289
      vertex 10.35 7.38459 17.8498
      vertex 10.35 7.25 17
    endloop
  endfacet
  facet normal 0 -0.876307 0.481753
    outer loop
      vertex 10.35 5.47586 19.1289
      vertex 12.7 5.47586 19.1289
      vertex 12.7 5.77836 19.6791
    endloop
  endfacet
  facet normal 0 -0.876307 0.481753
    outer loop
      vertex 10.35 5.47586 19.1289
      vertex 12.7 5.77836 19.6791
      vertex 10.35 5.77836 19.6791
    endloop
  endfacet
  facet normal -1 0 0
    outer loop
      vertex 10.35 5.77836 19.6791
      vertex 10.35 6.14743 20.1871
      vertex 10.35 7.38459 17.8498
    endloop
  endfacet
  facet normal 0 -0.809016 0.587786
    outer loop
      vertex 10.35 5.77836 19.6791
      vertex 12.7 5.77836 19.6791
      vertex 12.7 6.14743 20.1871
    endloop
  endfacet
  facet normal 0 -0.809016 0.587786
    outer loop
      vertex 10.35 5.77836 19.6791
      vertex 12.7 6.14743 20.1871
      vertex 10.35 6.14743 20.1871
    endloop
  endfacet
  facet normal -1 0 0
    outer loop
      vertex 10.35 6.14743 20.1871
      vertex 10.35 6.57726 20.6448
      vertex 10.35 7.38459 17.8498
    endloop
  endfacet
  facet normal 0 -0.72897 0.684545
    outer loop
      vertex 10.35 6.14743 20.1871
      vertex 12.7 6.14743 20.1871
      vertex 12.7 6.57726 20.6448
    endloop
  endfacet
  facet normal 0 -0.72897 0.684545
    outer loop
      vertex 10.35 6.14743 20.1871
      vertex 12.7 6.57726 20.6448
      vertex 10.35 6.57726 20.6448
    endloop
  endfacet
  facet normal -1 0 0
    outer loop
      vertex 10.35 6.57726 20.6448
      vertex 10.35 7.06107 21.0451
      vertex 10.35 8.38359 19.2248
    endloop
  endfacet
  facet normal -1 0 0
    outer loop
      vertex 10.35 6.57726 20.6448
      vertex 10.35 7.7752 18.6164
      vertex 10.35 7.38459 17.8498
    endloop
  endfacet
  facet normal -1 0 0
    outer loop
      vertex 10.35 6.57726 20.6448
      vertex 10.35 8.38359 19.2248
      vertex 10.35 7.7752 18.6164
    endloop
  endfacet
  facet normal 0 -0.637424 0.770513
    outer loop
      vertex 10.35 6.57726 20.6448
      vertex 12.7 6.57726 20.6448
      vertex 10.35 7.06107 21.0451
    endloop
  endfacet
  facet normal -1 0 0
    outer loop
      vertex 10.35 7.06107 21.0451
      vertex 10.35 7.59123 21.3815
      vertex 10.35 8.38359 19.2248
    endloop
  endfacet
  facet normal 0 -0.637424 0.770513
    outer loop
      vertex 10.35 7.06107 21.0451
      vertex 12.7 6.57726 20.6448
      vertex 12.7 7.06107 21.0451
    endloop
  endfacet
  facet normal 0 -0.535825 0.844329
    outer loop
      vertex 10.35 7.06107 21.0451
      vertex 12.7 7.06107 21.0451
      vertex 10.35 7.59123 21.3815
    endloop
  endfacet
  facet normal 0 0.987688 -0.156434
    outer loop
      vertex 10.35 7.25 17
      vertex 10.35 7.38459 17.8498
      vertex 12.7 7.25 17
    endloop
  endfacet
  facet normal 0 0.987688 0.156434
    outer loop
      vertex 10.35 7.25 17
      vertex 12.7 7.25 17
      vertex 12.7 7.38459 16.1502
    endloop
  endfacet
  facet normal 0 0.987688 0.156434
    outer loop
      vertex 10.35 7.25 17
      vertex 12.7 7.38459 16.1502
      vertex 10.35 7.38459 16.1502
    endloop
  endfacet
  facet normal 0 0.891007 0.45399
    outer loop
      vertex 10.35 7.38459 16.1502
      vertex 12.7 7.38459 16.1502
      vertex 12.7 7.7752 15.3836
    endloop
  endfacet
  facet normal 0 0.891007 0.45399
    outer loop
      vertex 10.35 7.38459 16.1502
      vertex 12.7 7.7752 15.3836
      vertex 10.35 7.7752 15.3836
    endloop
  endfacet
  facet normal 0 0.891007 -0.45399
    outer loop
      vertex 10.35 7.38459 17.8498
      vertex 10.35 7.7752 18.6164
      vertex 12.7 7.38459 17.8498
    endloop
  endfacet
  facet normal 0 0.987688 -0.156434
    outer loop
      vertex 10.35 7.38459 17.8498
      vertex 12.7 7.38459 17.8498
      vertex 12.7 7.25 17
    endloop
  endfacet
  facet normal -1 0 0
    outer loop
      vertex 10.35 7.59123 21.3815
      vertex 10.35 8.15938 21.6489
      vertex 10.35 9.1502 19.6154
    endloop
  endfacet
  facet normal -1 0 0
    outer loop
      vertex 10.35 7.59123 21.3815
      vertex 10.35 9.1502 19.6154
      vertex 10.35 8.38359 19.2248
    endloop
  endfacet
  facet normal 0 -0.535825 0.844329
    outer loop
      vertex 10.35 7.59123 21.3815
      vertex 12.7 7.06107 21.0451
      vertex 12.7 7.59123 21.3815
    endloop
  endfacet
  facet normal 0 -0.425779 0.904827
    outer loop
      vertex 10.35 7.59123 21.3815
      vertex 12.7 7.59123 21.3815
      vertex 10.35 8.15938 21.6489
    endloop
  endfacet
  facet normal 0 0.707107 0.707107
    outer loop
      vertex 10.35 7.7752 15.3836
      vertex 12.7 7.7752 15.3836
      vertex 12.7 8.38359 14.7752
    endloop
  endfacet
  facet normal 0 0.707107 0.707107
    outer loop
      vertex 10.35 7.7752 15.3836
      vertex 12.7 8.38359 14.7752
      vertex 10.35 8.38359 14.7752
    endloop
  endfacet
  facet normal 0 0.707107 -0.707107
    outer loop
      vertex 10.35 7.7752 18.6164
      vertex 10.35 8.38359 19.2248
      vertex 12.7 7.7752 18.6164
    endloop
  endfacet
  facet normal 0 0.891007 -0.45399
    outer loop
      vertex 10.35 7.7752 18.6164
      vertex 12.7 7.7752 18.6164
      vertex 12.7 7.38459 17.8498
    endloop
  endfacet
  facet normal -1 0 0
    outer loop
      vertex 10.35 8.15938 21.6489
      vertex 10.35 8.75655 21.8429
      vertex 10.35 9.1502 19.6154
    endloop
  endfacet
  facet normal 0 -0.425779 0.904827
    outer loop
      vertex 10.35 8.15938 21.6489
      vertex 12.7 7.59123 21.3815
      vertex 12.7 8.15938 21.6489
    endloop
  endfacet
  facet normal 0 -0.309016 0.951057
    outer loop
      vertex 10.35 8.15938 21.6489
      vertex 12.7 8.15938 21.6489
      vertex 10.35 8.75655 21.8429
    endloop
  endfacet
  facet normal 0 0.45399 0.891007
    outer loop
      vertex 10.35 8.38359 14.7752
      vertex 12.7 8.38359 14.7752
      vertex 10.35 9.1502 14.3846
    endloop
  endfacet
  facet normal 0 0.453991 -0.891006
    outer loop
      vertex 10.35 8.38359 19.2248
      vertex 10.35 9.1502 19.6154
      vertex 12.7 9.1502 19.6154
    endloop
  endfacet
  facet normal 0 0.707107 -0.707107
    outer loop
      vertex 10.35 8.38359 19.2248
      vertex 12.7 8.38359 19.2248
      vertex 12.7 7.7752 18.6164
    endloop
  endfacet
  facet normal 0 0.453991 -0.891006
    outer loop
      vertex 10.35 8.38359 19.2248
      vertex 12.7 9.1502 19.6154
      vertex 12.7 8.38359 19.2248
    endloop
  endfacet
  facet normal -1 0 0
    outer loop
      vertex 10.35 8.75655 21.8429
      vertex 10.35 9.37333 21.9606
      vertex 10.35 9.1502 19.6154
    endloop
  endfacet
  facet normal 0 -0.309016 0.951057
    outer loop
      vertex 10.35 8.75655 21.8429
      vertex 12.7 8.15938 21.6489
      vertex 12.7 8.75655 21.8429
    endloop
  endfacet
  facet normal 0 -0.187383 0.982287
    outer loop
      vertex 10.35 8.75655 21.8429
      vertex 12.7 8.75655 21.8429
      vertex 10.35 9.37333 21.9606
    endloop
  endfacet
  facet normal -0 0.45399 0.891007
    outer loop
      vertex 10.35 9.1502 14.3846
      vertex 12.7 8.38359 14.7752
      vertex 12.7 9.1502 14.3846
    endloop
  endfacet
  facet normal 0 0.156434 0.987688
    outer loop
      vertex 10.35 9.1502 14.3846
      vertex 12.7 9.1502 14.3846
      vertex 10.35 10 14.25
    endloop
  endfacet
  facet normal 0 0.156434 -0.987688
    outer loop
      vertex 10.35 9.1502 19.6154
      vertex 10.35 10 19.75
      vertex 12.7 10 19.75
    endloop
  endfacet
  facet normal -1 0 0
    outer loop
      vertex 10.35 9.1502 19.6154
      vertex 10.35 9.37333 21.9606
      vertex 10.35 10 19.75
    endloop
  endfacet
  facet normal 0 0.156434 -0.987688
    outer loop
      vertex 10.35 9.1502 19.6154
      vertex 12.7 10 19.75
      vertex 12.7 9.1502 19.6154
    endloop
  endfacet
  facet normal -1 0 0
    outer loop
      vertex 10.35 9.37333 21.9606
      vertex 10.35 10 22
      vertex 10.35 10 19.75
    endloop
  endfacet
  facet normal 0 -0.187383 0.982287
    outer loop
      vertex 10.35 9.37333 21.9606
      vertex 12.7 8.75655 21.8429
      vertex 12.7 9.37333 21.9606
    endloop
  endfacet
  facet normal 0 -0.0627909 0.998027
    outer loop
      vertex 10.35 9.37333 21.9606
      vertex 12.7 9.37333 21.9606
      vertex 10.35 10 22
    endloop
  endfacet
  facet normal 1 0 0
    outer loop
      vertex 12.7 0 0
      vertex 12.7 20 0
      vertex 12.7 0 2
    endloop
  endfacet
  facet normal 1 0 0
    outer loop
      vertex 12.7 0 2
      vertex 12.7 10 14.25
      vertex 12.7 0 7
    endloop
  endfacet
  facet normal 1 -0 0
    outer loop
      vertex 12.7 0 2
      vertex 12.7 20 0
      vertex 12.7 20 2
    endloop
  endfacet
  facet normal 1 0 0
    outer loop
      vertex 12.7 0 2
      vertex 12.7 20 2
      vertex 12.7 10 14.25
    endloop
  endfacet
  facet normal 1 0 0
    outer loop
      vertex 12.7 0 7
      vertex 12.7 10 14.25
      vertex 12.7 9.1502 14.3846
    endloop
  endfacet
  facet normal 1 0 0
    outer loop
      vertex 12.7 0 7
      vertex 12.7 7.38459 16.1502
      vertex 12.7 5.47586 19.1289
    endloop
  endfacet
  facet normal 1 0 0
    outer loop
      vertex 12.7 0 7
      vertex 12.7 7.7752 15.3836
      vertex 12.7 7.38459 16.1502
    endloop
  endfacet
  facet normal 1 0 0
    outer loop
      vertex 12.7 0 7
      vertex 12.7 8.38359 14.7752
      vertex 12.7 7.7752 15.3836
    endloop
  endfacet
  facet normal 1 0 0
    outer loop
      vertex 12.7 0 7
      vertex 12.7 9.1502 14.3846
      vertex 12.7 8.38359 14.7752
    endloop
  endfacet
  facet normal 1 0 0
    outer loop
      vertex 12.7 10 14.25
      vertex 12.7 20 2
      vertex 12.7 20 7
    endloop
  endfacet
  facet normal 1 -0 0
    outer loop
      vertex 12.7 10 14.25
      vertex 12.7 20 7
      vertex 12.7 10.8498 14.3846
    endloop
  endfacet
  facet normal 1 0 0
    outer loop
      vertex 12.7 10 19.75
      vertex 12.7 10.6267 21.9606
      vertex 12.7 10 22
    endloop
  endfacet
  facet normal 1 0 0
    outer loop
      vertex 12.7 10 19.75
      vertex 12.7 10.8498 19.6154
      vertex 12.7 10.6267 21.9606
    endloop
  endfacet
  facet normal 1 0 0
    outer loop
      vertex 12.7 10.6267 21.9606
      vertex 12.7 10.8498 19.6154
      vertex 12.7 11.2434 21.8429
    endloop
  endfacet
  facet normal 1 -0 0
    outer loop
      vertex 12.7 10.8498 14.3846
      vertex 12.7 20 7
      vertex 12.7 11.6164 14.7752
    endloop
  endfacet
  facet normal 1 0 0
    outer loop
      vertex 12.7 10.8498 19.6154
      vertex 12.7 11.6164 19.2248
      vertex 12.7 12.4088 21.3815
    endloop
  endfacet
  facet normal 1 0 0
    outer loop
      vertex 12.7 10.8498 19.6154
      vertex 12.7 11.8406 21.6489
      vertex 12.7 11.2434 21.8429
    endloop
  endfacet
  facet normal 1 0 0
    outer loop
      vertex 12.7 10.8498 19.6154
      vertex 12.7 12.4088 21.3815
      vertex 12.7 11.8406 21.6489
    endloop
  endfacet
  facet normal 1 -0 0
    outer loop
      vertex 12.7 11.6164 14.7752
      vertex 12.7 20 7
      vertex 12.7 12.2248 15.3836
    endloop
  endfacet
  facet normal 1 0 0
    outer loop
      vertex 12.7 11.6164 19.2248
      vertex 12.7 12.2248 18.6164
      vertex 12.7 13.4227 20.6448
    endloop
  endfacet
  facet normal 1 0 0
    outer loop
      vertex 12.7 11.6164 19.2248
      vertex 12.7 12.9389 21.0451
      vertex 12.7 12.4088 21.3815
    endloop
  endfacet
  facet normal 1 0 0
    outer loop
      vertex 12.7 11.6164 19.2248
      vertex 12.7 13.4227 20.6448
      vertex 12.7 12.9389 21.0451
    endloop
  endfacet
  facet normal 1 -0 0
    outer loop
      vertex 12.7 12.2248 15.3836
      vertex 12.7 20 7
      vertex 12.7 12.6154 16.1502
    endloop
  endfacet
  facet normal 1 0 0
    outer loop
      vertex 12.7 12.2248 18.6164
      vertex 12.7 12.6154 17.8498
      vertex 12.7 13.4227 20.6448
    endloop
  endfacet
  facet normal 1 0 0
    outer loop
      vertex 12.7 12.6154 16.1502
      vertex 12.7 14.5241 19.1289
      vertex 12.7 12.75 17
    endloop
  endfacet
  facet normal 1 -0 0
    outer loop
      vertex 12.7 12.6154 16.1502
      vertex 12.7 20 7
      vertex 12.7 14.5241 19.1289
    endloop
  endfacet
  facet normal 1 0 0
    outer loop
      vertex 12.7 12.6154 17.8498
      vertex 12.7 12.75 17
      vertex 12.7 14.5241 19.1289
    endloop
  endfacet
  facet normal 1 0 0
    outer loop
      vertex 12.7 12.6154 17.8498
      vertex 12.7 13.8526 20.1871
      vertex 12.7 13.4227 20.6448
    endloop
  endfacet
  facet normal 1 0 0
    outer loop
      vertex 12.7 12.6154 17.8498
      vertex 12.7 14.2216 19.6791
      vertex 12.7 13.8526 20.1871
    endloop
  endfacet
  facet normal 1 0 0
    outer loop
      vertex 12.7 12.6154 17.8498
      vertex 12.7 14.5241 19.1289
      vertex 12.7 14.2216 19.6791
    endloop
  endfacet
  facet normal 1 0 0
    outer loop
      vertex 12.7 5.47586 19.1289
      vertex 12.7 7.25 17
      vertex 12.7 7.38459 17.8498
    endloop
  endfacet
  facet normal 1 0 0
    outer loop
      vertex 12.7 5.47586 19.1289
      vertex 12.7 7.38459 16.1502
      vertex 12.7 7.25 17
    endloop
  endfacet
  facet normal 1 0 0
    outer loop
      vertex 12.7 5.47586 19.1289
      vertex 12.7 7.38459 17.8498
      vertex 12.7 7.7752 18.6164
    endloop
  endfacet
  facet normal 1 -0 0
    outer loop
      vertex 12.7 5.47586 19.1289
      vertex 12.7 7.7752 18.6164
      vertex 12.7 5.77836 19.6791
    endloop
  endfacet
  facet normal 1 -0 0
    outer loop
      vertex 12.7 5.77836 19.6791
      vertex 12.7 7.7752 18.6164
      vertex 12.7 6.14743 20.1871
    endloop
  endfacet
  facet normal 1 -0 0
    outer loop
      vertex 12.7 6.14743 20.1871
      vertex 12.7 7.7752 18.6164
      vertex 12.7 6.57726 20.6448
    endloop
  endfacet
  facet normal 1 0 0
    outer loop
      vertex 12.7 6.57726 20.6448
      vertex 12.7 7.7752 18.6164
      vertex 12.7 8.38359 19.2248
    endloop
  endfacet
  facet normal 1 -0 0
    outer loop
      vertex 12.7 6.57726 20.6448
      vertex 12.7 8.38359 19.2248
      vertex 12.7 7.06107 21.0451
    endloop
  endfacet
  facet normal 1 -0 0
    outer loop
      vertex 12.7 7.06107 21.0451
      vertex 12.7 8.38359 19.2248
      vertex 12.7 7.59123 21.3815
    endloop
  endfacet
  facet normal 1 0 0
    outer loop
      vertex 12.7 7.59123 21.3815
      vertex 12.7 8.38359 19.2248
      vertex 12.7 9.1502 19.6154
    endloop
  endfacet
  facet normal 1 -0 0
    outer loop
      vertex 12.7 7.59123 21.3815
      vertex 12.7 9.1502 19.6154
      vertex 12.7 8.15938 21.6489
    endloop
  endfacet
  facet normal 1 -0 0
    outer loop
      vertex 12.7 8.15938 21.6489
      vertex 12.7 9.1502 19.6154
      vertex 12.7 8.75655 21.8429
    endloop
  endfacet
  facet normal 1 -0 0
    outer loop
      vertex 12.7 8.75655 21.8429
      vertex 12.7 9.1502 19.6154
      vertex 12.7 9.37333 21.9606
    endloop
  endfacet
  facet normal 1 0 0
    outer loop
      vertex 12.7 9.1502 19.6154
      vertex 12.7 10 19.75
      vertex 12.7 9.37333 21.9606
    endloop
  endfacet
  facet normal 1 -0 0
    outer loop
      vertex 12.7 9.37333 21.9606
      vertex 12.7 10 19.75
      vertex 12.7 10 22
    endloop
  endfacet
  facet normal 0 0 1
    outer loop
      vertex 2.35 0 2
      vertex 10.35 0 2
      vertex 6.35 2.75 2
    endloop
  endfacet
  facet normal 0 -1 0
    outer loop
      vertex 2.35 0 2
      vertex 12.7 0 0
      vertex 10.35 0 2
    endloop
  endfacet
  facet normal 1 0 0
    outer loop
      vertex 2.35 0 2
      vertex 2.35 10 14.25
      vertex 2.35 0 7
    endloop
  endfacet
  facet normal 1 0 0
    outer loop
      vertex 2.35 0 2
      vertex 2.35 20 2
      vertex 2.35 10 14.25
    endloop
  endfacet
  facet normal 0 0 1
    outer loop
      vertex 2.35 0 2
      vertex 4.1 5 2
      vertex 4.21012 5.69529 2
    endloop
  endfacet
  facet normal 0 0 1
    outer loop
      vertex 2.35 0 2
      vertex 4.21012 4.30471 2
      vertex 4.1 5 2
    endloop
  endfacet
  facet normal 0 0 1
    outer loop
      vertex 2.35 0 2
      vertex 4.21012 5.69529 2
      vertex 2.35 20 2
    endloop
  endfacet
  facet normal 0 0 1
    outer loop
      vertex 2.35 0 2
      vertex 4.52971 3.67748 2
      vertex 4.21012 4.30471 2
    endloop
  endfacet
  facet normal 0 0 1
    outer loop
      vertex 2.35 0 2
      vertex 5.02748 3.17971 2
      vertex 4.52971 3.67748 2
    endloop
  endfacet
  facet normal 0 0 1
    outer loop
      vertex 2.35 0 2
      vertex 5.65471 2.86012 2
      vertex 5.02748 3.17971 2
    endloop
  endfacet
  facet normal 0 0 1
    outer loop
      vertex 2.35 0 2
      vertex 6.35 2.75 2
      vertex 5.65471 2.86012 2
    endloop
  endfacet
  facet normal 1 0 0
    outer loop
      vertex 2.35 0 7
      vertex 2.35 10 14.25
      vertex 2.35 9.1502 14.3846
    endloop
  endfacet
  facet normal 1 0 0
    outer loop
      vertex 2.35 0 7
      vertex 2.35 7.38459 16.1502
      vertex 2.35 5.47586 19.1289
    endloop
  endfacet
  facet normal 1 0 0
    outer loop
      vertex 2.35 0 7
      vertex 2.35 7.7752 15.3836
      vertex 2.35 7.38459 16.1502
    endloop
  endfacet
  facet normal 1 0 0
    outer loop
      vertex 2.35 0 7
      vertex 2.35 8.38359 14.7752
      vertex 2.35 7.7752 15.3836
    endloop
  endfacet
  facet normal 1 0 0
    outer loop
      vertex 2.35 0 7
      vertex 2.35 9.1502 14.3846
      vertex 2.35 8.38359 14.7752
    endloop
  endfacet
  facet normal 1 0 0
    outer loop
      vertex 2.35 10 14.25
      vertex 2.35 20 2
      vertex 2.35 20 7
    endloop
  endfacet
  facet normal 1 -0 0
    outer loop
      vertex 2.35 10 14.25
      vertex 2.35 20 7
      vertex 2.35 10.8498 14.3846
    endloop
  endfacet
  facet normal 1 0 0
    outer loop
      vertex 2.35 10 19.75
      vertex 2.35 10.6267 21.9606
      vertex 2.35 10 22
    endloop
  endfacet
  facet normal 1 0 0
    outer loop
      vertex 2.35 10 19.75
      vertex 2.35 10.8498 19.6154
      vertex 2.35 10.6267 21.9606
    endloop
  endfacet
  facet normal 1 0 0
    outer loop
      vertex 2.35 10.6267 21.9606
      vertex 2.35 10.8498 19.6154
      vertex 2.35 11.2434 21.8429
    endloop
  endfacet
  facet normal 1 -0 0
    outer loop
      vertex 2.35 10.8498 14.3846
      vertex 2.35 20 7
      vertex 2.35 11.6164 14.7752
    endloop
  endfacet
  facet normal 1 0 0
    outer loop
      vertex 2.35 10.8498 19.6154
      vertex 2.35 11.6164 19.2248
      vertex 2.35 12.4088 21.3815
    endloop
  endfacet
  facet normal 1 0 0
    outer loop
      vertex 2.35 10.8498 19.6154
      vertex 2.35 11.8406 21.6489
      vertex 2.35 11.2434 21.8429
    endloop
  endfacet
  facet normal 1 0 0
    outer loop
      vertex 2.35 10.8498 19.6154
      vertex 2.35 12.4088 21.3815
      vertex 2.35 11.8406 21.6489
    endloop
  endfacet
  facet normal 1 -0 0
    outer loop
      vertex 2.35 11.6164 14.7752
      vertex 2.35 20 7
      vertex 2.35 12.2248 15.3836
    endloop
  endfacet
  facet normal 1 0 0
    outer loop
      vertex 2.35 11.6164 19.2248
      vertex 2.35 12.2248 18.6164
      vertex 2.35 13.4227 20.6448
    endloop
  endfacet
  facet normal 1 0 0
    outer loop
      vertex 2.35 11.6164 19.2248
      vertex 2.35 12.9389 21.0451
      vertex 2.35 12.4088 21.3815
    endloop
  endfacet
  facet normal 1 0 0
    outer loop
      vertex 2.35 11.6164 19.2248
      vertex 2.35 13.4227 20.6448
      vertex 2.35 12.9389 21.0451
    endloop
  endfacet
  facet normal 1 -0 0
    outer loop
      vertex 2.35 12.2248 15.3836
      vertex 2.35 20 7
      vertex 2.35 12.6154 16.1502
    endloop
  endfacet
  facet normal 1 0 0
    outer loop
      vertex 2.35 12.2248 18.6164
      vertex 2.35 12.6154 17.8498
      vertex 2.35 13.4227 20.6448
    endloop
  endfacet
  facet normal 1 0 0
    outer loop
      vertex 2.35 12.6154 16.1502
      vertex 2.35 14.5241 19.1289
      vertex 2.35 12.75 17
    endloop
  endfacet
  facet normal 1 -0 0
    outer loop
      vertex 2.35 12.6154 16.1502
      vertex 2.35 20 7
      vertex 2.35 14.5241 19.1289
    endloop
  endfacet
  facet normal 1 0 0
    outer loop
      vertex 2.35 12.6154 17.8498
      vertex 2.35 12.75 17
      vertex 2.35 14.5241 19.1289
    endloop
  endfacet
  facet normal 1 0 0
    outer loop
      vertex 2.35 12.6154 17.8498
      vertex 2.35 13.8526 20.1871
      vertex 2.35 13.4227 20.6448
    endloop
  endfacet
  facet normal 1 0 0
    outer loop
      vertex 2.35 12.6154 17.8498
      vertex 2.35 14.2216 19.6791
      vertex 2.35 13.8526 20.1871
    endloop
  endfacet
  facet normal 1 0 0
    outer loop
      vertex 2.35 12.6154 17.8498
      vertex 2.35 14.5241 19.1289
      vertex 2.35 14.2216 19.6791
    endloop
  endfacet
  facet normal 0 1 0
    outer loop
      vertex 2.35 20 2
      vertex 10.35 20 2
      vertex 12.7 20 0
    endloop
  endfacet
  facet normal 0 0 1
    outer loop
      vertex 2.35 20 2
      vertex 4.1 15 2
      vertex 4.21012 15.6953 2
    endloop
  endfacet
  facet normal 0 0 1
    outer loop
      vertex 2.35 20 2
      vertex 4.21012 14.3047 2
      vertex 4.1 15 2
    endloop
  endfacet
  facet normal 0 0 1
    outer loop
      vertex 2.35 20 2
      vertex 4.21012 15.6953 2
      vertex 4.52971 16.3225 2
    endloop
  endfacet
  facet normal 0 0 1
    outer loop
      vertex 2.35 20 2
      vertex 4.21012 5.69529 2
      vertex 4.21012 14.3047 2
    endloop
  endfacet
  facet normal 0 0 1
    outer loop
      vertex 2.35 20 2
      vertex 4.52971 16.3225 2
      vertex 5.02748 16.8203 2
    endloop
  endfacet
  facet normal 0 0 1
    outer loop
      vertex 2.35 20 2
      vertex 5.02748 16.8203 2
      vertex 5.65471 17.1399 2
    endloop
  endfacet
  facet normal 0 0 1
    outer loop
      vertex 2.35 20 2
      vertex 5.65471 17.1399 2
      vertex 6.35 17.25 2
    endloop
  endfacet
  facet normal -0 0 1
    outer loop
      vertex 2.35 20 2
      vertex 6.35 17.25 2
      vertex 10.35 20 2
    endloop
  endfacet
  facet normal 1 0 0
    outer loop
      vertex 2.35 5.47586 19.1289
      vertex 2.35 7.25 17
      vertex 2.35 7.38459 17.8498
    endloop
  endfacet
  facet normal 1 0 0
    outer loop
      vertex 2.35 5.47586 19.1289
      vertex 2.35 7.38459 16.1502
      vertex 2.35 7.25 17
    endloop
  endfacet
  facet normal 1 0 0
    outer loop
      vertex 2.35 5.47586 19.1289
      vertex 2.35 7.38459 17.8498
      vertex 2.35 7.7752 18.6164
    endloop
  endfacet
  facet normal 1 -0 0
    outer loop
      vertex 2.35 5.47586 19.1289
      vertex 2.35 7.7752 18.6164
      vertex 2.35 5.77836 19.6791
    endloop
  endfacet
  facet normal 1 -0 0
    outer loop
      vertex 2.35 5.77836 19.6791
      vertex 2.35 7.7752 18.6164
      vertex 2.35 6.14743 20.1871
    endloop
  endfacet
  facet normal 1 -0 0
    outer loop
      vertex 2.35 6.14743 20.1871
      vertex 2.35 7.7752 18.6164
      vertex 2.35 6.57726 20.6448
    endloop
  endfacet
  facet normal 1 0 0
    outer loop
      vertex 2.35 6.57726 20.6448
      vertex 2.35 7.7752 18.6164
      vertex 2.35 8.38359 19.2248
    endloop
  endfacet
  facet normal 1 -0 0
    outer loop
      vertex 2.35 6.57726 20.6448
      vertex 2.35 8.38359 19.2248
      vertex 2.35 7.06107 21.0451
    endloop
  endfacet
  facet normal 1 -0 0
    outer loop
      vertex 2.35 7.06107 21.0451
      vertex 2.35 8.38359 19.2248
      vertex 2.35 7.59123 21.3815
    endloop
  endfacet
  facet normal 1 0 0
    outer loop
      vertex 2.35 7.59123 21.3815
      vertex 2.35 8.38359 19.2248
      vertex 2.35 9.1502 19.6154
    endloop
  endfacet
  facet normal 1 -0 0
    outer loop
      vertex 2.35 7.59123 21.3815
      vertex 2.35 9.1502 19.6154
      vertex 2.35 8.15938 21.6489
    endloop
  endfacet
  facet normal 1 -0 0
    outer loop
      vertex 2.35 8.15938 21.6489
      vertex 2.35 9.1502 19.6154
      vertex 2.35 8.75655 21.8429
    endloop
  endfacet
  facet normal 1 -0 0
    outer loop
      vertex 2.35 8.75655 21.8429
      vertex 2.35 9.1502 19.6154
      vertex 2.35 9.37333 21.9606
    endloop
  endfacet
  facet normal 1 0 0
    outer loop
      vertex 2.35 9.1502 19.6154
      vertex 2.35 10 19.75
      vertex 2.35 9.37333 21.9606
    endloop
  endfacet
  facet normal 1 -0 0
    outer loop
      vertex 2.35 9.37333 21.9606
      vertex 2.35 10 19.75
      vertex 2.35 10 22
    endloop
  endfacet
  facet normal 0.987688 0.156435 0
    outer loop
      vertex 4.1 15 0
      vertex 4.1 15 2
      vertex 4.21012 14.3047 2
    endloop
  endfacet
  facet normal 0.987688 0.156435 0
    outer loop
      vertex 4.1 15 0
      vertex 4.21012 14.3047 2
      vertex 4.21012 14.3047 0
    endloop
  endfacet
  facet normal 0.987688 -0.156436 0
    outer loop
      vertex 4.1 15 0
      vertex 4.21012 15.6953 0
      vertex 4.1 15 2
    endloop
  endfacet
  facet normal 0.987688 -0.156436 0
    outer loop
      vertex 4.1 15 2
      vertex 4.21012 15.6953 0
      vertex 4.21012 15.6953 2
    endloop
  endfacet
  facet normal 0.987688 0.156436 0
    outer loop
      vertex 4.1 5 0
      vertex 4.1 5 2
      vertex 4.21012 4.30471 2
    endloop
  endfacet
  facet normal 0.987688 0.156436 0
    outer loop
      vertex 4.1 5 0
      vertex 4.21012 4.30471 2
      vertex 4.21012 4.30471 0
    endloop
  endfacet
  facet normal 0.987688 -0.156436 0
    outer loop
      vertex 4.1 5 0
      vertex 4.21012 5.69529 0
      vertex 4.1 5 2
    endloop
  endfacet
  facet normal 0.987688 -0.156436 0
    outer loop
      vertex 4.1 5 2
      vertex 4.21012 5.69529 0
      vertex 4.21012 5.69529 2
    endloop
  endfacet
  facet normal 0.891007 0.45399 0
    outer loop
      vertex 4.21012 14.3047 0
      vertex 4.21012 14.3047 2
      vertex 4.52971 13.6775 2
    endloop
  endfacet
  facet normal 0.891007 0.45399 0
    outer loop
      vertex 4.21012 14.3047 0
      vertex 4.52971 13.6775 2
      vertex 4.52971 13.6775 0
    endloop
  endfacet
  facet normal 0 0 1
    outer loop
      vertex 4.21012 14.3047 2
      vertex 4.52971 6.32252 2
      vertex 4.52971 13.6775 2
    endloop
  endfacet
  facet normal 0.891007 -0.45399 0
    outer loop
      vertex 4.21012 15.6953 0
      vertex 4.52971 16.3225 0
      vertex 4.21012 15.6953 2
    endloop
  endfacet
  facet normal 0.891007 -0.45399 0
    outer loop
      vertex 4.21012 15.6953 2
      vertex 4.52971 16.3225 0
      vertex 4.52971 16.3225 2
    endloop
  endfacet
  facet normal 0.891007 0.45399 0
    outer loop
      vertex 4.21012 4.30471 0
      vertex 4.21012 4.30471 2
      vertex 4.52971 3.67748 2
    endloop
  endfacet
  facet normal 0.891007 0.45399 0
    outer loop
      vertex 4.21012 4.30471 0
      vertex 4.52971 3.67748 2
      vertex 4.52971 3.67748 0
    endloop
  endfacet
  facet normal 0 0 -1
    outer loop
      vertex 4.21012 5.69529 0
      vertex 4.21012 14.3047 0
      vertex 4.52971 13.6775 0
    endloop
  endfacet
  facet normal 0 0 -1
    outer loop
      vertex 4.21012 5.69529 0
      vertex 4.52971 13.6775 0
      vertex 4.52971 6.32252 0
    endloop
  endfacet
  facet normal 0.891007 -0.45399 0
    outer loop
      vertex 4.21012 5.69529 0
      vertex 4.52971 6.32252 0
      vertex 4.21012 5.69529 2
    endloop
  endfacet
  facet normal 0.891007 -0.45399 0
    outer loop
      vertex 4.21012 5.69529 2
      vertex 4.52971 6.32252 0
      vertex 4.52971 6.32252 2
    endloop
  endfacet
  facet normal 0 0 1
    outer loop
      vertex 4.21012 5.69529 2
      vertex 4.52971 6.32252 2
      vertex 4.21012 14.3047 2
    endloop
  endfacet
  facet normal 0.707107 0.707107 0
    outer loop
      vertex 4.52971 13.6775 0
      vertex 4.52971 13.6775 2
      vertex 5.02748 13.1797 2
    endloop
  endfacet
  facet normal 0.707107 0.707107 0
    outer loop
      vertex 4.52971 13.6775 0
      vertex 5.02748 13.1797 2
      vertex 5.02748 13.1797 0
    endloop
  endfacet
  facet normal 0 0 1
    outer loop
      vertex 4.52971 13.6775 2
      vertex 5.02748 6.82029 2
      vertex 5.02748 13.1797 2
    endloop
  endfacet
  facet normal 0.707106 -0.707107 0
    outer loop
      vertex 4.52971 16.3225 0
      vertex 5.02748 16.8203 0
      vertex 5.02748 16.8203 2
    endloop
  endfacet
  facet normal 0.707106 -0.707107 0
    outer loop
      vertex 4.52971 16.3225 0
      vertex 5.02748 16.8203 2
      vertex 4.52971 16.3225 2
    endloop
  endfacet
  facet normal 0.707107 0.707107 0
    outer loop
      vertex 4.52971 3.67748 0
      vertex 4.52971 3.67748 2
      vertex 5.02748 3.17971 2
    endloop
  endfacet
  facet normal 0.707107 0.707107 0
    outer loop
      vertex 4.52971 3.67748 0
      vertex 5.02748 3.17971 2
      vertex 5.02748 3.17971 0
    endloop
  endfacet
  facet normal 0 0 -1
    outer loop
      vertex 4.52971 6.32252 0
      vertex 4.52971 13.6775 0
      vertex 5.02748 13.1797 0
    endloop
  endfacet
  facet normal 0 0 -1
    outer loop
      vertex 4.52971 6.32252 0
      vertex 5.02748 13.1797 0
      vertex 5.02748 6.82029 0
    endloop
  endfacet
  facet normal 0.707107 -0.707107 0
    outer loop
      vertex 4.52971 6.32252 0
      vertex 5.02748 6.82029 0
      vertex 4.52971 6.32252 2
    endloop
  endfacet
  facet normal 0.707107 -0.707107 0
    outer loop
      vertex 4.52971 6.32252 2
      vertex 5.02748 6.82029 0
      vertex 5.02748 6.82029 2
    endloop
  endfacet
  facet normal 0 0 1
    outer loop
      vertex 4.52971 6.32252 2
      vertex 5.02748 6.82029 2
      vertex 4.52971 13.6775 2
    endloop
  endfacet
  facet normal 0.45399 0.891007 0
    outer loop
      vertex 5.02748 13.1797 0
      vertex 5.02748 13.1797 2
      vertex 5.65471 12.8601 0
    endloop
  endfacet
  facet normal 0.45399 0.891007 -0
    outer loop
      vertex 5.02748 13.1797 2
      vertex 5.65471 12.8601 2
      vertex 5.65471 12.8601 0
    endloop
  endfacet
  facet normal 0 0 1
    outer loop
      vertex 5.02748 13.1797 2
      vertex 5.65471 7.13988 2
      vertex 5.65471 12.8601 2
    endloop
  endfacet
  facet normal 0.453991 -0.891006 0
    outer loop
      vertex 5.02748 16.8203 0
      vertex 5.65471 17.1399 0
      vertex 5.65471 17.1399 2
    endloop
  endfacet
  facet normal 0.453991 -0.891006 0
    outer loop
      vertex 5.02748 16.8203 0
      vertex 5.65471 17.1399 2
      vertex 5.02748 16.8203 2
    endloop
  endfacet
  facet normal 0.45399 0.891007 0
    outer loop
      vertex 5.02748 3.17971 0
      vertex 5.02748 3.17971 2
      vertex 5.65471 2.86012 0
    endloop
  endfacet
  facet normal 0.45399 0.891007 -0
    outer loop
      vertex 5.02748 3.17971 2
      vertex 5.65471 2.86012 2
      vertex 5.65471 2.86012 0
    endloop
  endfacet
  facet normal 0 0 -1
    outer loop
      vertex 5.02748 6.82029 0
      vertex 5.02748 13.1797 0
      vertex 5.65471 12.8601 0
    endloop
  endfacet
  facet normal 0 0 -1
    outer loop
      vertex 5.02748 6.82029 0
      vertex 5.65471 12.8601 0
      vertex 5.65471 7.13988 0
    endloop
  endfacet
  facet normal 0.45399 -0.891007 0
    outer loop
      vertex 5.02748 6.82029 0
      vertex 5.65471 7.13988 0
      vertex 5.65471 7.13988 2
    endloop
  endfacet
  facet normal 0.45399 -0.891007 0
    outer loop
      vertex 5.02748 6.82029 0
      vertex 5.65471 7.13988 2
      vertex 5.02748 6.82029 2
    endloop
  endfacet
  facet normal 0 0 1
    outer loop
      vertex 5.02748 6.82029 2
      vertex 5.65471 7.13988 2
      vertex 5.02748 13.1797 2
    endloop
  endfacet
  facet normal 0.156434 0.987688 0
    outer loop
      vertex 5.65471 12.8601 0
      vertex 5.65471 12.8601 2
      vertex 6.35 12.75 0
    endloop
  endfacet
  facet normal 0.156434 0.987688 -0
    outer loop
      vertex 5.65471 12.8601 2
      vertex 6.35 12.75 2
      vertex 6.35 12.75 0
    endloop
  endfacet
  facet normal 0 0 1
    outer loop
      vertex 5.65471 12.8601 2
      vertex 6.35 7.25 2
      vertex 6.35 12.75 2
    endloop
  endfacet
  facet normal 0.156434 -0.987688 0
    outer loop
      vertex 5.65471 17.1399 0
      vertex 6.35 17.25 0
      vertex 6.35 17.25 2
    endloop
  endfacet
  facet normal 0.156434 -0.987688 0
    outer loop
      vertex 5.65471 17.1399 0
      vertex 6.35 17.25 2
      vertex 5.65471 17.1399 2
    endloop
  endfacet
  facet normal 0.156436 0.987688 0
    outer loop
      vertex 5.65471 2.86012 0
      vertex 5.65471 2.86012 2
      vertex 6.35 2.75 0
    endloop
  endfacet
  facet normal 0.156436 0.987688 -0
    outer loop
      vertex 5.65471 2.86012 2
      vertex 6.35 2.75 2
      vertex 6.35 2.75 0
    endloop
  endfacet
  facet normal 0 0 -1
    outer loop
      vertex 5.65471 7.13988 0
      vertex 5.65471 12.8601 0
      vertex 6.35 12.75 0
    endloop
  endfacet
  facet normal 0 0 -1
    outer loop
      vertex 5.65471 7.13988 0
      vertex 6.35 12.75 0
      vertex 6.35 7.25 0
    endloop
  endfacet
  facet normal 0.156436 -0.987688 0
    outer loop
      vertex 5.65471 7.13988 0
      vertex 6.35 7.25 0
      vertex 6.35 7.25 2
    endloop
  endfacet
  facet normal 0.156436 -0.987688 0
    outer loop
      vertex 5.65471 7.13988 0
      vertex 6.35 7.25 2
      vertex 5.65471 7.13988 2
    endloop
  endfacet
  facet normal 0 0 1
    outer loop
      vertex 5.65471 7.13988 2
      vertex 6.35 7.25 2
      vertex 5.65471 12.8601 2
    endloop
  endfacet
  facet normal -0.156434 0.987688 0
    outer loop
      vertex 6.35 12.75 0
      vertex 6.35 12.75 2
      vertex 7.04529 12.8601 0
    endloop
  endfacet
  facet normal -0.156434 0.987688 0
    outer loop
      vertex 6.35 12.75 2
      vertex 7.04529 12.8601 2
      vertex 7.04529 12.8601 0
    endloop
  endfacet
  facet normal -0 0 1
    outer loop
      vertex 6.35 12.75 2
      vertex 7.04529 7.13988 2
      vertex 7.04529 12.8601 2
    endloop
  endfacet
  facet normal 0 0 -1
    outer loop
      vertex 6.35 17.25 0
      vertex 12.7 20 0
      vertex 7.04529 17.1399 0
    endloop
  endfacet
  facet normal -0.156434 -0.987688 -0
    outer loop
      vertex 6.35 17.25 0
      vertex 7.04529 17.1399 0
      vertex 7.04529 17.1399 2
    endloop
  endfacet
  facet normal -0.156434 -0.987688 0
    outer loop
      vertex 6.35 17.25 0
      vertex 7.04529 17.1399 2
      vertex 6.35 17.25 2
    endloop
  endfacet
  facet normal 0 0 1
    outer loop
      vertex 6.35 17.25 2
      vertex 7.04529 17.1399 2
      vertex 10.35 20 2
    endloop
  endfacet
  facet normal -0.156436 0.987688 0
    outer loop
      vertex 6.35 2.75 0
      vertex 6.35 2.75 2
      vertex 7.04529 2.86012 0
    endloop
  endfacet
  facet normal 0 0 -1
    outer loop
      vertex 6.35 2.75 0
      vertex 7.04529 2.86012 0
      vertex 12.7 0 0
    endloop
  endfacet
  facet normal -0 0 1
    outer loop
      vertex 6.35 2.75 2
      vertex 10.35 0 2
      vertex 7.04529 2.86012 2
    endloop
  endfacet
  facet normal -0.156436 0.987688 0
    outer loop
      vertex 6.35 2.75 2
      vertex 7.04529 2.86012 2
      vertex 7.04529 2.86012 0
    endloop
  endfacet
  facet normal 0 0 -1
    outer loop
      vertex 6.35 7.25 0
      vertex 6.35 12.75 0
      vertex 7.04529 12.8601 0
    endloop
  endfacet
  facet normal 0 0 -1
    outer loop
      vertex 6.35 7.25 0
      vertex 7.04529 12.8601 0
      vertex 7.04529 7.13988 0
    endloop
  endfacet
  facet normal -0.156436 -0.987688 -0
    outer loop
      vertex 6.35 7.25 0
      vertex 7.04529 7.13988 0
      vertex 7.04529 7.13988 2
    endloop
  endfacet
  facet normal -0.156436 -0.987688 0
    outer loop
      vertex 6.35 7.25 0
      vertex 7.04529 7.13988 2
      vertex 6.35 7.25 2
    endloop
  endfacet
  facet normal 0 0 1
    outer loop
      vertex 6.35 7.25 2
      vertex 7.04529 7.13988 2
      vertex 6.35 12.75 2
    endloop
  endfacet
  facet normal -0.45399 0.891007 0
    outer loop
      vertex 7.04529 12.8601 0
      vertex 7.04529 12.8601 2
      vertex 7.67252 13.1797 0
    endloop
  endfacet
  facet normal -0.45399 0.891007 0
    outer loop
      vertex 7.04529 12.8601 2
      vertex 7.67252 13.1797 2
      vertex 7.67252 13.1797 0
    endloop
  endfacet
  facet normal -0 0 1
    outer loop
      vertex 7.04529 12.8601 2
      vertex 7.67252 6.82029 2
      vertex 7.67252 13.1797 2
    endloop
  endfacet
  facet normal 0 0 -1
    outer loop
      vertex 7.04529 17.1399 0
      vertex 12.7 20 0
      vertex 7.67252 16.8203 0
    endloop
  endfacet
  facet normal -0.453991 -0.891006 -0
    outer loop
      vertex 7.04529 17.1399 0
      vertex 7.67252 16.8203 0
      vertex 7.67252 16.8203 2
    endloop
  endfacet
  facet normal -0.453991 -0.891006 0
    outer loop
      vertex 7.04529 17.1399 0
      vertex 7.67252 16.8203 2
      vertex 7.04529 17.1399 2
    endloop
  endfacet
  facet normal 0 0 1
    outer loop
      vertex 7.04529 17.1399 2
      vertex 7.67252 16.8203 2
      vertex 10.35 20 2
    endloop
  endfacet
  facet normal -0.45399 0.891007 0
    outer loop
      vertex 7.04529 2.86012 0
      vertex 7.04529 2.86012 2
      vertex 7.67252 3.17971 0
    endloop
  endfacet
  facet normal 0 0 -1
    outer loop
      vertex 7.04529 2.86012 0
      vertex 7.67252 3.17971 0
      vertex 12.7 0 0
    endloop
  endfacet
  facet normal -0 0 1
    outer loop
      vertex 7.04529 2.86012 2
      vertex 10.35 0 2
      vertex 7.67252 3.17971 2
    endloop
  endfacet
  facet normal -0.45399 0.891007 0
    outer loop
      vertex 7.04529 2.86012 2
      vertex 7.67252 3.17971 2
      vertex 7.67252 3.17971 0
    endloop
  endfacet
  facet normal 0 0 -1
    outer loop
      vertex 7.04529 7.13988 0
      vertex 7.04529 12.8601 0
      vertex 7.67252 13.1797 0
    endloop
  endfacet
  facet normal 0 0 -1
    outer loop
      vertex 7.04529 7.13988 0
      vertex 7.67252 13.1797 0
      vertex 7.67252 6.82029 0
    endloop
  endfacet
  facet normal -0.45399 -0.891007 -0
    outer loop
      vertex 7.04529 7.13988 0
      vertex 7.67252 6.82029 0
      vertex 7.67252 6.82029 2
    endloop
  endfacet
  facet normal -0.45399 -0.891007 0
    outer loop
      vertex 7.04529 7.13988 0
      vertex 7.67252 6.82029 2
      vertex 7.04529 7.13988 2
    endloop
  endfacet
  facet normal 0 0 1
    outer loop
      vertex 7.04529 7.13988 2
      vertex 7.67252 6.82029 2
      vertex 7.04529 12.8601 2
    endloop
  endfacet
  facet normal -0.707106 0.707107 0
    outer loop
      vertex 7.67252 13.1797 0
      vertex 7.67252 13.1797 2
      vertex 8.17029 13.6775 0
    endloop
  endfacet
  facet normal -0.707106 0.707107 0
    outer loop
      vertex 7.67252 13.1797 2
      vertex 8.17029 13.6775 2
      vertex 8.17029 13.6775 0
    endloop
  endfacet
  facet normal -0 0 1
    outer loop
      vertex 7.67252 13.1797 2
      vertex 8.17029 6.32252 2
      vertex 8.17029 13.6775 2
    endloop
  endfacet
  facet normal 0 0 -1
    outer loop
      vertex 7.67252 16.8203 0
      vertex 12.7 20 0
      vertex 8.17029 16.3225 0
    endloop
  endfacet
  facet normal -0.707106 -0.707108 -0
    outer loop
      vertex 7.67252 16.8203 0
      vertex 8.17029 16.3225 0
      vertex 8.17029 16.3225 2
    endloop
  endfacet
  facet normal -0.707106 -0.707108 0
    outer loop
      vertex 7.67252 16.8203 0
      vertex 8.17029 16.3225 2
      vertex 7.67252 16.8203 2
    endloop
  endfacet
  facet normal 0 0 1
    outer loop
      vertex 7.67252 16.8203 2
      vertex 8.17029 16.3225 2
      vertex 10.35 20 2
    endloop
  endfacet
  facet normal -0.707106 0.707107 0
    outer loop
      vertex 7.67252 3.17971 0
      vertex 7.67252 3.17971 2
      vertex 8.17029 3.67748 0
    endloop
  endfacet
  facet normal 0 0 -1
    outer loop
      vertex 7.67252 3.17971 0
      vertex 8.17029 3.67748 0
      vertex 12.7 0 0
    endloop
  endfacet
  facet normal -0 0 1
    outer loop
      vertex 7.67252 3.17971 2
      vertex 10.35 0 2
      vertex 8.17029 3.67748 2
    endloop
  endfacet
  facet normal -0.707106 0.707107 0
    outer loop
      vertex 7.67252 3.17971 2
      vertex 8.17029 3.67748 2
      vertex 8.17029 3.67748 0
    endloop
  endfacet
  facet normal 0 0 -1
    outer loop
      vertex 7.67252 6.82029 0
      vertex 7.67252 13.1797 0
      vertex 8.17029 13.6775 0
    endloop
  endfacet
  facet normal 0 0 -1
    outer loop
      vertex 7.67252 6.82029 0
      vertex 8.17029 13.6775 0
      vertex 8.17029 6.32252 0
    endloop
  endfacet
  facet normal -0.707106 -0.707107 -0
    outer loop
      vertex 7.67252 6.82029 0
      vertex 8.17029 6.32252 0
      vertex 8.17029 6.32252 2
    endloop
  endfacet
  facet normal -0.707106 -0.707107 0
    outer loop
      vertex 7.67252 6.82029 0
      vertex 8.17029 6.32252 2
      vertex 7.67252 6.82029 2
    endloop
  endfacet
  facet normal 0 0 1
    outer loop
      vertex 7.67252 6.82029 2
      vertex 8.17029 6.32252 2
      vertex 7.67252 13.1797 2
    endloop
  endfacet
  facet normal -0.891007 0.45399 0
    outer loop
      vertex 8.17029 13.6775 0
      vertex 8.17029 13.6775 2
      vertex 8.48988 14.3047 2
    endloop
  endfacet
  facet normal -0.891007 0.45399 0
    outer loop
      vertex 8.17029 13.6775 0
      vertex 8.48988 14.3047 2
      vertex 8.48988 14.3047 0
    endloop
  endfacet
  facet normal -0 0 1
    outer loop
      vertex 8.17029 13.6775 2
      vertex 8.48988 5.69529 2
      vertex 8.48988 14.3047 2
    endloop
  endfacet
  facet normal 0 0 -1
    outer loop
      vertex 8.17029 16.3225 0
      vertex 12.7 20 0
      vertex 8.48988 15.6953 0
    endloop
  endfacet
  facet normal -0.891007 -0.45399 0
    outer loop
      vertex 8.17029 16.3225 0
      vertex 8.48988 15.6953 0
      vertex 8.17029 16.3225 2
    endloop
  endfacet
  facet normal -0.891007 -0.45399 0
    outer loop
      vertex 8.17029 16.3225 2
      vertex 8.48988 15.6953 0
      vertex 8.48988 15.6953 2
    endloop
  endfacet
  facet normal 0 0 1
    outer loop
      vertex 8.17029 16.3225 2
      vertex 8.48988 15.6953 2
      vertex 10.35 20 2
    endloop
  endfacet
  facet normal -0.891007 0.45399 0
    outer loop
      vertex 8.17029 3.67748 0
      vertex 8.17029 3.67748 2
      vertex 8.48988 4.30471 2
    endloop
  endfacet
  facet normal 0 0 -1
    outer loop
      vertex 8.17029 3.67748 0
      vertex 8.48988 4.30471 0
      vertex 12.7 0 0
    endloop
  endfacet
  facet normal -0.891007 0.45399 0
    outer loop
      vertex 8.17029 3.67748 0
      vertex 8.48988 4.30471 2
      vertex 8.48988 4.30471 0
    endloop
  endfacet
  facet normal -0 0 1
    outer loop
      vertex 8.17029 3.67748 2
      vertex 10.35 0 2
      vertex 8.48988 4.30471 2
    endloop
  endfacet
  facet normal 0 0 -1
    outer loop
      vertex 8.17029 6.32252 0
      vertex 8.17029 13.6775 0
      vertex 8.48988 14.3047 0
    endloop
  endfacet
  facet normal 0 0 -1
    outer loop
      vertex 8.17029 6.32252 0
      vertex 8.48988 14.3047 0
      vertex 8.48988 5.69529 0
    endloop
  endfacet
  facet normal -0.891007 -0.45399 0
    outer loop
      vertex 8.17029 6.32252 0
      vertex 8.48988 5.69529 0
      vertex 8.17029 6.32252 2
    endloop
  endfacet
  facet normal -0.891007 -0.45399 0
    outer loop
      vertex 8.17029 6.32252 2
      vertex 8.48988 5.69529 0
      vertex 8.48988 5.69529 2
    endloop
  endfacet
  facet normal 0 0 1
    outer loop
      vertex 8.17029 6.32252 2
      vertex 8.48988 5.69529 2
      vertex 8.17029 13.6775 2
    endloop
  endfacet
  facet normal -0.987688 0.156435 0
    outer loop
      vertex 8.48988 14.3047 0
      vertex 8.48988 14.3047 2
      vertex 8.6 15 2
    endloop
  endfacet
  facet normal 0 0 -1
    outer loop
      vertex 8.48988 14.3047 0
      vertex 8.6 15 0
      vertex 12.7 20 0
    endloop
  endfacet
  facet normal -0.987688 0.156435 0
    outer loop
      vertex 8.48988 14.3047 0
      vertex 8.6 15 2
      vertex 8.6 15 0
    endloop
  endfacet
  facet normal 0 0 1
    outer loop
      vertex 8.48988 14.3047 2
      vertex 10.35 0 2
      vertex 10.35 20 2
    endloop
  endfacet
  facet normal 0 0 1
    outer loop
      vertex 8.48988 14.3047 2
      vertex 10.35 20 2
      vertex 8.6 15 2
    endloop
  endfacet
  facet normal 0 0 -1
    outer loop
      vertex 8.48988 15.6953 0
      vertex 12.7 20 0
      vertex 8.6 15 0
    endloop
  endfacet
  facet normal -0.987688 -0.156436 0
    outer loop
      vertex 8.48988 15.6953 0
      vertex 8.6 15 0
      vertex 8.48988 15.6953 2
    endloop
  endfacet
  facet normal -0.987688 -0.156436 0
    outer loop
      vertex 8.48988 15.6953 2
      vertex 8.6 15 0
      vertex 8.6 15 2
    endloop
  endfacet
  facet normal 0 0 1
    outer loop
      vertex 8.48988 15.6953 2
      vertex 8.6 15 2
      vertex 10.35 20 2
    endloop
  endfacet
  facet normal -0.987688 0.156436 0
    outer loop
      vertex 8.48988 4.30471 0
      vertex 8.48988 4.30471 2
      vertex 8.6 5 2
    endloop
  endfacet
  facet normal 0 0 -1
    outer loop
      vertex 8.48988 4.30471 0
      vertex 8.6 5 0
      vertex 12.7 0 0
    endloop
  endfacet
  facet normal -0.987688 0.156436 0
    outer loop
      vertex 8.48988 4.30471 0
      vertex 8.6 5 2
      vertex 8.6 5 0
    endloop
  endfacet
  facet normal -0 0 1
    outer loop
      vertex 8.48988 4.30471 2
      vertex 10.35 0 2
      vertex 8.6 5 2
    endloop
  endfacet
  facet normal 0 0 -1
    outer loop
      vertex 8.48988 5.69529 0
      vertex 12.7 0 0
      vertex 8.6 5 0
    endloop
  endfacet
  facet normal 0 0 -1
    outer loop
      vertex 8.48988 5.69529 0
      vertex 12.7 20 0
      vertex 12.7 0 0
    endloop
  endfacet
  facet normal 0 0 -1
    outer loop
      vertex 8.48988 5.69529 0
      vertex 8.48988 14.3047 0
      vertex 12.7 20 0
    endloop
  endfacet
  facet normal -0.987688 -0.156436 0
    outer loop
      vertex 8.48988 5.69529 0
      vertex 8.6 5 0
      vertex 8.48988 5.69529 2
    endloop
  endfacet
  facet normal -0 0 1
    outer loop
      vertex 8.48988 5.69529 2
      vertex 10.35 0 2
      vertex 8.48988 14.3047 2
    endloop
  endfacet
  facet normal -0.987688 -0.156436 0
    outer loop
      vertex 8.48988 5.69529 2
      vertex 8.6 5 0
      vertex 8.6 5 2
    endloop
  endfacet
  facet normal 0 0 1
    outer loop
      vertex 8.48988 5.69529 2
      vertex 8.6 5 2
      vertex 10.35 0 2
    endloop
  endfacet
endsolid model
