solid model
  facet normal -1 0 0
    outer loop
      vertex 0 0 0
      vertex 0 0 14
      vertex 0 7.47252 12.8212
    endloop
  endfacet
  facet normal -1 0 0
    outer loop
      vertex 0 0 0
      vertex 0 10 12
      vertex 0 20 0
    endloop
  endfacet
  facet normal -0 0 -1
    outer loop
      vertex 0 0 0
      vertex 0 20 0
      vertex 14 20 0
    endloop
  endfacet
  facet normal -1 -0 0
    outer loop
      vertex 0 0 0
      vertex 0 7.47252 12.8212
      vertex 0 8.04784 12.4687
    endloop
  endfacet
  facet normal -1 -0 0
    outer loop
      vertex 0 0 0
      vertex 0 8.04784 12.4687
      vertex 0 8.67123 12.2105
    endloop
  endfacet
  facet normal -1 -0 0
    outer loop
      vertex 0 0 0
      vertex 0 8.67123 12.2105
      vertex 0 9.32733 12.0529
    endloop
  endfacet
  facet normal -1 -0 0
    outer loop
      vertex 0 0 0
      vertex 0 9.32733 12.0529
      vertex 0 10 12
    endloop
  endfacet
  facet normal 0 -1 -0
    outer loop
      vertex 0 0 0
      vertex 12 0 2
      vertex 2 0 2
    endloop
  endfacet
  facet normal 0 -1 0
    outer loop
      vertex 0 0 0
      vertex 14 0 0
      vertex 12 0 2
    endloop
  endfacet
  facet normal 0 0 -1
    outer loop
      vertex 0 0 0
      vertex 14 20 0
      vertex 14 0 0
    endloop
  endfacet
  facet normal 0 -1 0
    outer loop
      vertex 0 0 0
      vertex 2 0 2
      vertex 0 0 14
    endloop
  endfacet
  facet normal -1 -0 0
    outer loop
      vertex 0 0 14
      vertex 0 4.09418 20.5908
      vertex 0 5.7 16.3
    endloop
  endfacet
  facet normal -1 0 0
    outer loop
      vertex 0 0 14
      vertex 0 5.7 16.3
      vertex 0 5.75294 15.6273
    endloop
  endfacet
  facet normal -1 0 0
    outer loop
      vertex 0 0 14
      vertex 0 5.75294 15.6273
      vertex 0 5.91046 14.9712
    endloop
  endfacet
  facet normal -1 -0 0
    outer loop
      vertex 0 0 14
      vertex 0 5.91046 14.9712
      vertex 0 6.16867 14.3478
    endloop
  endfacet
  facet normal -1 0 0
    outer loop
      vertex 0 0 14
      vertex 0 6.16867 14.3478
      vertex 0 6.52123 13.7725
    endloop
  endfacet
  facet normal -1 0 0
    outer loop
      vertex 0 0 14
      vertex 0 6.52123 13.7725
      vertex 0 6.95944 13.2594
    endloop
  endfacet
  facet normal -1 0 0
    outer loop
      vertex 0 0 14
      vertex 0 6.95944 13.2594
      vertex 0 7.47252 12.8212
    endloop
  endfacet
  facet normal 0 -0.849449 0.527671
    outer loop
      vertex 0 0 14
      vertex 14 0 14
      vertex 14 4.09418 20.5908
    endloop
  endfacet
  facet normal 0 -0.849449 0.527671
    outer loop
      vertex 0 0 14
      vertex 14 4.09418 20.5908
      vertex 0 4.09418 20.5908
    endloop
  endfacet
  facet normal 0 -1 0
    outer loop
      vertex 0 0 14
      vertex 2 0 12
      vertex 14 0 14
    endloop
  endfacet
  facet normal 0 -1 0
    outer loop
      vertex 0 0 14
      vertex 2 0 2
      vertex 2 0 12
    endloop
  endfacet
  facet normal -1 0 0
    outer loop
      vertex 0 10 12
      vertex 0 10.6727 12.0529
      vertex 0 20 0
    endloop
  endfacet
  facet normal 0 -0.0784581 0.996917
    outer loop
      vertex 0 10 12
      vertex 14 10 12
      vertex 0 10.6727 12.0529
    endloop
  endfacet
  facet normal -0 0.078458 0.996917
    outer loop
      vertex 0 10 12
      vertex 14 9.32733 12.0529
      vertex 14 10 12
    endloop
  endfacet
  facet normal -1 0 0
    outer loop
      vertex 0 10 20.6
      vertex 0 10 23.6
      vertex 0 11.142 23.5101
    endloop
  endfacet
  facet normal -0 -0.0784595 -0.996917
    outer loop
      vertex 0 10 20.6
      vertex 0 10.6727 20.5471
      vertex 14 10.6727 20.5471
    endloop
  endfacet
  facet normal -1 0 0
    outer loop
      vertex 0 10 20.6
      vertex 0 11.142 23.5101
      vertex 0 10.6727 20.5471
    endloop
  endfacet
  facet normal 0 -0.0784595 -0.996917
    outer loop
      vertex 0 10 20.6
      vertex 14 10.6727 20.5471
      vertex 14 10 20.6
    endloop
  endfacet
  facet normal 0 0.0784584 0.996917
    outer loop
      vertex 0 10 23.6
      vertex 14 10 23.6
      vertex 0 11.142 23.5101
    endloop
  endfacet
  facet normal 0 -0.0784583 0.996917
    outer loop
      vertex 0 10 23.6
      vertex 14 8.85803 23.5101
      vertex 14 10 23.6
    endloop
  endfacet
  facet normal -1 0 0
    outer loop
      vertex 0 10.6727 12.0529
      vertex 0 11.3288 12.2105
      vertex 0 20 0
    endloop
  endfacet
  facet normal 0 -0.0784581 0.996917
    outer loop
      vertex 0 10.6727 12.0529
      vertex 14 10 12
      vertex 14 10.6727 12.0529
    endloop
  endfacet
  facet normal 0 -0.233446 0.97237
    outer loop
      vertex 0 10.6727 12.0529
      vertex 14 10.6727 12.0529
      vertex 0 11.3288 12.2105
    endloop
  endfacet
  facet normal -1 0 0
    outer loop
      vertex 0 10.6727 20.5471
      vertex 0 11.142 23.5101
      vertex 0 11.3288 20.3895
    endloop
  endfacet
  facet normal -0 -0.233445 -0.97237
    outer loop
      vertex 0 10.6727 20.5471
      vertex 0 11.3288 20.3895
      vertex 14 11.3288 20.3895
    endloop
  endfacet
  facet normal 0 -0.233445 -0.97237
    outer loop
      vertex 0 10.6727 20.5471
      vertex 14 11.3288 20.3895
      vertex 14 10.6727 20.5471
    endloop
  endfacet
  facet normal -1 0 0
    outer loop
      vertex 0 11.142 23.5101
      vertex 0 12.2558 23.2427
      vertex 0 11.3288 20.3895
    endloop
  endfacet
  facet normal -0 0.0784584 0.996917
    outer loop
      vertex 0 11.142 23.5101
      vertex 14 10 23.6
      vertex 14 11.142 23.5101
    endloop
  endfacet
  facet normal 0 0.233445 0.97237
    outer loop
      vertex 0 11.142 23.5101
      vertex 14 11.142 23.5101
      vertex 0 12.2558 23.2427
    endloop
  endfacet
  facet normal -1 0 0
    outer loop
      vertex 0 11.3288 12.2105
      vertex 0 11.9522 12.4687
      vertex 0 20 0
    endloop
  endfacet
  facet normal 0 -0.233446 0.97237
    outer loop
      vertex 0 11.3288 12.2105
      vertex 14 10.6727 12.0529
      vertex 14 11.3288 12.2105
    endloop
  endfacet
  facet normal 0 -0.382683 0.92388
    outer loop
      vertex 0 11.3288 12.2105
      vertex 14 11.3288 12.2105
      vertex 0 11.9522 12.4687
    endloop
  endfacet
  facet normal -0 -0.382681 -0.923881
    outer loop
      vertex 0 11.3288 20.3895
      vertex 0 11.9522 20.1313
      vertex 14 11.9522 20.1313
    endloop
  endfacet
  facet normal -1 0 0
    outer loop
      vertex 0 11.3288 20.3895
      vertex 0 12.2558 23.2427
      vertex 0 11.9522 20.1313
    endloop
  endfacet
  facet normal 0 -0.382681 -0.923881
    outer loop
      vertex 0 11.3288 20.3895
      vertex 14 11.9522 20.1313
      vertex 14 11.3288 20.3895
    endloop
  endfacet
  facet normal -1 0 0
    outer loop
      vertex 0 11.9522 12.4687
      vertex 0 12.5275 12.8212
      vertex 0 20 0
    endloop
  endfacet
  facet normal 0 -0.382683 0.92388
    outer loop
      vertex 0 11.9522 12.4687
      vertex 14 11.3288 12.2105
      vertex 14 11.9522 12.4687
    endloop
  endfacet
  facet normal 0 -0.522498 0.852641
    outer loop
      vertex 0 11.9522 12.4687
      vertex 14 11.9522 12.4687
      vertex 0 12.5275 12.8212
    endloop
  endfacet
  facet normal -1 -0 0
    outer loop
      vertex 0 11.9522 20.1313
      vertex 0 12.2558 23.2427
      vertex 0 13.3141 22.8043
    endloop
  endfacet
  facet normal -0 -0.5225 -0.852639
    outer loop
      vertex 0 11.9522 20.1313
      vertex 0 12.5275 19.7788
      vertex 14 12.5275 19.7788
    endloop
  endfacet
  facet normal -1 0 0
    outer loop
      vertex 0 11.9522 20.1313
      vertex 0 13.3141 22.8043
      vertex 0 12.5275 19.7788
    endloop
  endfacet
  facet normal 0 -0.5225 -0.852639
    outer loop
      vertex 0 11.9522 20.1313
      vertex 14 12.5275 19.7788
      vertex 14 11.9522 20.1313
    endloop
  endfacet
  facet normal -0 0.233445 0.97237
    outer loop
      vertex 0 12.2558 23.2427
      vertex 14 11.142 23.5101
      vertex 14 12.2558 23.2427
    endloop
  endfacet
  facet normal 0 0.382683 0.92388
    outer loop
      vertex 0 12.2558 23.2427
      vertex 14 12.2558 23.2427
      vertex 0 13.3141 22.8043
    endloop
  endfacet
  facet normal -1 0 0
    outer loop
      vertex 0 12.5275 12.8212
      vertex 0 13.0406 13.2594
      vertex 0 20 14
    endloop
  endfacet
  facet normal -1 0 0
    outer loop
      vertex 0 12.5275 12.8212
      vertex 0 20 14
      vertex 0 20 0
    endloop
  endfacet
  facet normal 0 -0.522498 0.852641
    outer loop
      vertex 0 12.5275 12.8212
      vertex 14 11.9522 12.4687
      vertex 14 12.5275 12.8212
    endloop
  endfacet
  facet normal 0 -0.649448 0.760406
    outer loop
      vertex 0 12.5275 12.8212
      vertex 14 12.5275 12.8212
      vertex 0 13.0406 13.2594
    endloop
  endfacet
  facet normal 1.31093e-08 -0.649448 -0.760406
    outer loop
      vertex 0 12.5275 19.7788
      vertex 0 13.0406 19.3406
      vertex 14 12.7202 19.6141
    endloop
  endfacet
  facet normal -1 -0 0
    outer loop
      vertex 0 12.5275 19.7788
      vertex 0 13.3141 22.8043
      vertex 0 14.2908 22.2058
    endloop
  endfacet
  facet normal -1 0 0
    outer loop
      vertex 0 12.5275 19.7788
      vertex 0 14.2908 22.2058
      vertex 0 13.0406 19.3406
    endloop
  endfacet
  facet normal 0 -0.649447 -0.760407
    outer loop
      vertex 0 12.5275 19.7788
      vertex 14 12.7202 19.6141
      vertex 14 12.5275 19.7788
    endloop
  endfacet
  facet normal -1 0 0
    outer loop
      vertex 0 13.0406 13.2594
      vertex 0 13.4788 13.7725
      vertex 0 20 14
    endloop
  endfacet
  facet normal 0 -0.649448 0.760406
    outer loop
      vertex 0 13.0406 13.2594
      vertex 14 12.5275 12.8212
      vertex 14 13.0406 13.2594
    endloop
  endfacet
  facet normal 0 -0.760406 0.649448
    outer loop
      vertex 0 13.0406 13.2594
      vertex 14 13.0406 13.2594
      vertex 14 13.4788 13.7725
    endloop
  endfacet
  facet normal 0 -0.760406 0.649448
    outer loop
      vertex 0 13.0406 13.2594
      vertex 14 13.4788 13.7725
      vertex 0 13.4788 13.7725
    endloop
  endfacet
  facet normal 0 -0.760406 -0.649448
    outer loop
      vertex 0 13.0406 19.3406
      vertex 0 13.4788 18.8275
      vertex 14 13.0406 19.3406
    endloop
  endfacet
  facet normal -1 -0 0
    outer loop
      vertex 0 13.0406 19.3406
      vertex 0 14.2908 22.2058
      vertex 0 15.1619 21.4619
    endloop
  endfacet
  facet normal -1 0 0
    outer loop
      vertex 0 13.0406 19.3406
      vertex 0 15.1619 21.4619
      vertex 0 13.4788 18.8275
    endloop
  endfacet
  facet normal 0 -0.649448 -0.760406
    outer loop
      vertex 0 13.0406 19.3406
      vertex 14 13.0406 19.3406
      vertex 14 12.7202 19.6141
    endloop
  endfacet
  facet normal -0 0.382683 0.92388
    outer loop
      vertex 0 13.3141 22.8043
      vertex 14 12.2558 23.2427
      vertex 14 13.3141 22.8043
    endloop
  endfacet
  facet normal 0 0.522499 0.85264
    outer loop
      vertex 0 13.3141 22.8043
      vertex 14 13.3141 22.8043
      vertex 0 14.2908 22.2058
    endloop
  endfacet
  facet normal -1 -0 0
    outer loop
      vertex 0 13.4788 13.7725
      vertex 0 13.8313 14.3478
      vertex 0 20 14
    endloop
  endfacet
  facet normal 0 -0.85264 0.522499
    outer loop
      vertex 0 13.4788 13.7725
      vertex 14 13.4788 13.7725
      vertex 14 13.8313 14.3478
    endloop
  endfacet
  facet normal 0 -0.85264 0.522499
    outer loop
      vertex 0 13.4788 13.7725
      vertex 14 13.8313 14.3478
      vertex 0 13.8313 14.3478
    endloop
  endfacet
  facet normal 0 -0.85264 -0.522499
    outer loop
      vertex 0 13.4788 18.8275
      vertex 0 13.8313 18.2522
      vertex 14 13.4788 18.8275
    endloop
  endfacet
  facet normal -1 -0 0
    outer loop
      vertex 0 13.4788 18.8275
      vertex 0 15.1619 21.4619
      vertex 0 15.9058 20.5908
    endloop
  endfacet
  facet normal -1 0 0
    outer loop
      vertex 0 13.4788 18.8275
      vertex 0 15.9058 20.5908
      vertex 0 13.8313 18.2522
    endloop
  endfacet
  facet normal 0 -0.760406 -0.649448
    outer loop
      vertex 0 13.4788 18.8275
      vertex 14 13.4788 18.8275
      vertex 14 13.0406 19.3406
    endloop
  endfacet
  facet normal -1 0 0
    outer loop
      vertex 0 13.8313 14.3478
      vertex 0 14.0895 14.9712
      vertex 0 20 14
    endloop
  endfacet
  facet normal 0 -0.92388 0.382683
    outer loop
      vertex 0 13.8313 14.3478
      vertex 14 13.8313 14.3478
      vertex 14 14.0895 14.9712
    endloop
  endfacet
  facet normal 0 -0.92388 0.382683
    outer loop
      vertex 0 13.8313 14.3478
      vertex 14 14.0895 14.9712
      vertex 0 14.0895 14.9712
    endloop
  endfacet
  facet normal 0 -0.92388 -0.382683
    outer loop
      vertex 0 13.8313 18.2522
      vertex 0 14.0895 17.6288
      vertex 14 13.8313 18.2522
    endloop
  endfacet
  facet normal -1 0 0
    outer loop
      vertex 0 13.8313 18.2522
      vertex 0 15.9058 20.5908
      vertex 0 14.0895 17.6288
    endloop
  endfacet
  facet normal 0 -0.85264 -0.522499
    outer loop
      vertex 0 13.8313 18.2522
      vertex 14 13.8313 18.2522
      vertex 14 13.4788 18.8275
    endloop
  endfacet
  facet normal -1 0 0
    outer loop
      vertex 0 14.0895 14.9712
      vertex 0 14.2471 15.6273
      vertex 0 20 14
    endloop
  endfacet
  facet normal 0 -0.97237 0.233446
    outer loop
      vertex 0 14.0895 14.9712
      vertex 14 14.0895 14.9712
      vertex 14 14.2471 15.6273
    endloop
  endfacet
  facet normal 0 -0.97237 0.233446
    outer loop
      vertex 0 14.0895 14.9712
      vertex 14 14.2471 15.6273
      vertex 0 14.2471 15.6273
    endloop
  endfacet
  facet normal 0 -0.97237 -0.233446
    outer loop
      vertex 0 14.0895 17.6288
      vertex 0 14.2471 16.9727
      vertex 14 14.0895 17.6288
    endloop
  endfacet
  facet normal -1 0 0
    outer loop
      vertex 0 14.0895 17.6288
      vertex 0 15.9058 20.5908
      vertex 0 14.2471 16.9727
    endloop
  endfacet
  facet normal 0 -0.92388 -0.382683
    outer loop
      vertex 0 14.0895 17.6288
      vertex 14 14.0895 17.6288
      vertex 14 13.8313 18.2522
    endloop
  endfacet
  facet normal -1 0 -0
    outer loop
      vertex 0 14.2471 15.6273
      vertex 0 14.3 16.3
      vertex 0 20 14
    endloop
  endfacet
  facet normal 0 -0.996917 0.0784581
    outer loop
      vertex 0 14.2471 15.6273
      vertex 14 14.2471 15.6273
      vertex 14 14.3 16.3
    endloop
  endfacet
  facet normal 0 -0.996917 0.0784581
    outer loop
      vertex 0 14.2471 15.6273
      vertex 14 14.3 16.3
      vertex 0 14.3 16.3
    endloop
  endfacet
  facet normal 0 -0.996917 -0.078458
    outer loop
      vertex 0 14.2471 16.9727
      vertex 0 14.3 16.3
      vertex 14 14.2471 16.9727
    endloop
  endfacet
  facet normal -1 0 0
    outer loop
      vertex 0 14.2471 16.9727
      vertex 0 15.9058 20.5908
      vertex 0 20 14
    endloop
  endfacet
  facet normal -1 0 0
    outer loop
      vertex 0 14.2471 16.9727
      vertex 0 20 14
      vertex 0 14.3 16.3
    endloop
  endfacet
  facet normal 0 -0.97237 -0.233446
    outer loop
      vertex 0 14.2471 16.9727
      vertex 14 14.2471 16.9727
      vertex 14 14.0895 17.6288
    endloop
  endfacet
  facet normal -0 0.522499 0.85264
    outer loop
      vertex 0 14.2908 22.2058
      vertex 14 13.3141 22.8043
      vertex 14 14.2908 22.2058
    endloop
  endfacet
  facet normal 0 0.649448 0.760406
    outer loop
      vertex 0 14.2908 22.2058
      vertex 14 14.2908 22.2058
      vertex 0 15.1619 21.4619
    endloop
  endfacet
  facet normal 0 -0.996917 -0.078458
    outer loop
      vertex 0 14.3 16.3
      vertex 14 14.3 16.3
      vertex 14 14.2471 16.9727
    endloop
  endfacet
  facet normal -0 0.649448 0.760406
    outer loop
      vertex 0 15.1619 21.4619
      vertex 14 14.2908 22.2058
      vertex 14 15.1619 21.4619
    endloop
  endfacet
  facet normal 0 0.760406 0.649448
    outer loop
      vertex 0 15.1619 21.4619
      vertex 14 15.1619 21.4619
      vertex 14 15.9058 20.5908
    endloop
  endfacet
  facet normal 0 0.760406 0.649448
    outer loop
      vertex 0 15.1619 21.4619
      vertex 14 15.9058 20.5908
      vertex 0 15.9058 20.5908
    endloop
  endfacet
  facet normal 0 0.849449 0.527671
    outer loop
      vertex 0 15.9058 20.5908
      vertex 14 15.9058 20.5908
      vertex 14 20 14
    endloop
  endfacet
  facet normal 0 0.849449 0.527671
    outer loop
      vertex 0 15.9058 20.5908
      vertex 14 20 14
      vertex 0 20 14
    endloop
  endfacet
  facet normal 0 1 0
    outer loop
      vertex 0 20 0
      vertex 0 20 14
      vertex 2 20 2
    endloop
  endfacet
  facet normal 0 1 0
    outer loop
      vertex 0 20 0
      vertex 2 20 2
      vertex 14 20 0
    endloop
  endfacet
  facet normal 0 1 -0
    outer loop
      vertex 0 20 14
      vertex 12 20 12
      vertex 2 20 12
    endloop
  endfacet
  facet normal 0 1 0
    outer loop
      vertex 0 20 14
      vertex 14 20 14
      vertex 12 20 12
    endloop
  endfacet
  facet normal 0 1 -0
    outer loop
      vertex 0 20 14
      vertex 2 20 12
      vertex 2 20 2
    endloop
  endfacet
  facet normal -1 0 0
    outer loop
      vertex 0 4.09418 20.5908
      vertex 0 4.83812 21.4619
      vertex 0 5.7 16.3
    endloop
  endfacet
  facet normal 0 -0.760406 0.649448
    outer loop
      vertex 0 4.09418 20.5908
      vertex 14 4.09418 20.5908
      vertex 14 4.83812 21.4619
    endloop
  endfacet
  facet normal 0 -0.760406 0.649448
    outer loop
      vertex 0 4.09418 20.5908
      vertex 14 4.83812 21.4619
      vertex 0 4.83812 21.4619
    endloop
  endfacet
  facet normal -1 0 0
    outer loop
      vertex 0 4.83812 21.4619
      vertex 0 5.70917 22.2058
      vertex 0 6.95944 19.3406
    endloop
  endfacet
  facet normal -1 0 0
    outer loop
      vertex 0 4.83812 21.4619
      vertex 0 5.75294 16.9727
      vertex 0 5.7 16.3
    endloop
  endfacet
  facet normal -1 0 0
    outer loop
      vertex 0 4.83812 21.4619
      vertex 0 5.91046 17.6288
      vertex 0 5.75294 16.9727
    endloop
  endfacet
  facet normal -1 0 0
    outer loop
      vertex 0 4.83812 21.4619
      vertex 0 6.16867 18.2522
      vertex 0 5.91046 17.6288
    endloop
  endfacet
  facet normal -1 0 0
    outer loop
      vertex 0 4.83812 21.4619
      vertex 0 6.52123 18.8275
      vertex 0 6.16867 18.2522
    endloop
  endfacet
  facet normal -1 0 0
    outer loop
      vertex 0 4.83812 21.4619
      vertex 0 6.95944 19.3406
      vertex 0 6.52123 18.8275
    endloop
  endfacet
  facet normal 0 -0.649448 0.760406
    outer loop
      vertex 0 4.83812 21.4619
      vertex 14 4.83812 21.4619
      vertex 0 5.70917 22.2058
    endloop
  endfacet
  facet normal 0 0.996917 -0.078458
    outer loop
      vertex 0 5.7 16.3
      vertex 0 5.75294 16.9727
      vertex 14 5.7 16.3
    endloop
  endfacet
  facet normal 0 0.996917 0.0784581
    outer loop
      vertex 0 5.7 16.3
      vertex 14 5.7 16.3
      vertex 14 5.75294 15.6273
    endloop
  endfacet
  facet normal 0 0.996917 0.0784581
    outer loop
      vertex 0 5.7 16.3
      vertex 14 5.75294 15.6273
      vertex 0 5.75294 15.6273
    endloop
  endfacet
  facet normal -1 0 0
    outer loop
      vertex 0 5.70917 22.2058
      vertex 0 6.68587 22.8043
      vertex 0 7.47252 19.7788
    endloop
  endfacet
  facet normal -1 0 0
    outer loop
      vertex 0 5.70917 22.2058
      vertex 0 7.47252 19.7788
      vertex 0 6.95944 19.3406
    endloop
  endfacet
  facet normal 0 -0.649448 0.760406
    outer loop
      vertex 0 5.70917 22.2058
      vertex 14 4.83812 21.4619
      vertex 14 5.70917 22.2058
    endloop
  endfacet
  facet normal 0 -0.522499 0.85264
    outer loop
      vertex 0 5.70917 22.2058
      vertex 14 5.70917 22.2058
      vertex 0 6.68587 22.8043
    endloop
  endfacet
  facet normal 0 0.97237 0.233446
    outer loop
      vertex 0 5.75294 15.6273
      vertex 14 5.75294 15.6273
      vertex 14 5.91046 14.9712
    endloop
  endfacet
  facet normal 0 0.97237 0.233446
    outer loop
      vertex 0 5.75294 15.6273
      vertex 14 5.91046 14.9712
      vertex 0 5.91046 14.9712
    endloop
  endfacet
  facet normal 0 0.97237 -0.233446
    outer loop
      vertex 0 5.75294 16.9727
      vertex 0 5.91046 17.6288
      vertex 14 5.75294 16.9727
    endloop
  endfacet
  facet normal 0 0.996917 -0.078458
    outer loop
      vertex 0 5.75294 16.9727
      vertex 14 5.75294 16.9727
      vertex 14 5.7 16.3
    endloop
  endfacet
  facet normal 0 0.92388 0.382683
    outer loop
      vertex 0 5.91046 14.9712
      vertex 14 5.91046 14.9712
      vertex 14 6.16867 14.3478
    endloop
  endfacet
  facet normal 0 0.92388 0.382683
    outer loop
      vertex 0 5.91046 14.9712
      vertex 14 6.16867 14.3478
      vertex 0 6.16867 14.3478
    endloop
  endfacet
  facet normal 0 0.92388 -0.382683
    outer loop
      vertex 0 5.91046 17.6288
      vertex 0 6.16867 18.2522
      vertex 14 5.91046 17.6288
    endloop
  endfacet
  facet normal 0 0.97237 -0.233446
    outer loop
      vertex 0 5.91046 17.6288
      vertex 14 5.91046 17.6288
      vertex 14 5.75294 16.9727
    endloop
  endfacet
  facet normal 0 0.85264 0.522499
    outer loop
      vertex 0 6.16867 14.3478
      vertex 14 6.16867 14.3478
      vertex 14 6.52123 13.7725
    endloop
  endfacet
  facet normal 0 0.85264 0.522499
    outer loop
      vertex 0 6.16867 14.3478
      vertex 14 6.52123 13.7725
      vertex 0 6.52123 13.7725
    endloop
  endfacet
  facet normal 0 0.85264 -0.522499
    outer loop
      vertex 0 6.16867 18.2522
      vertex 0 6.52123 18.8275
      vertex 14 6.16867 18.2522
    endloop
  endfacet
  facet normal 0 0.92388 -0.382683
    outer loop
      vertex 0 6.16867 18.2522
      vertex 14 6.16867 18.2522
      vertex 14 5.91046 17.6288
    endloop
  endfacet
  facet normal 0 0.760406 0.649448
    outer loop
      vertex 0 6.52123 13.7725
      vertex 14 6.52123 13.7725
      vertex 14 6.95944 13.2594
    endloop
  endfacet
  facet normal 0 0.760406 0.649448
    outer loop
      vertex 0 6.52123 13.7725
      vertex 14 6.95944 13.2594
      vertex 0 6.95944 13.2594
    endloop
  endfacet
  facet normal 0 0.760406 -0.649448
    outer loop
      vertex 0 6.52123 18.8275
      vertex 0 6.95944 19.3406
      vertex 14 6.52123 18.8275
    endloop
  endfacet
  facet normal 0 0.85264 -0.522499
    outer loop
      vertex 0 6.52123 18.8275
      vertex 14 6.52123 18.8275
      vertex 14 6.16867 18.2522
    endloop
  endfacet
  facet normal -1 0 0
    outer loop
      vertex 0 6.68587 22.8043
      vertex 0 7.74418 23.2427
      vertex 0 8.04784 20.1313
    endloop
  endfacet
  facet normal -1 0 0
    outer loop
      vertex 0 6.68587 22.8043
      vertex 0 8.04784 20.1313
      vertex 0 7.47252 19.7788
    endloop
  endfacet
  facet normal 0 -0.522499 0.85264
    outer loop
      vertex 0 6.68587 22.8043
      vertex 14 5.70917 22.2058
      vertex 14 6.68587 22.8043
    endloop
  endfacet
  facet normal 0 -0.382683 0.92388
    outer loop
      vertex 0 6.68587 22.8043
      vertex 14 6.68587 22.8043
      vertex 0 7.74418 23.2427
    endloop
  endfacet
  facet normal 0 0.649448 0.760406
    outer loop
      vertex 0 6.95944 13.2594
      vertex 14 6.95944 13.2594
      vertex 0 7.47252 12.8212
    endloop
  endfacet
  facet normal -9.01073e-09 0.649448 -0.760406
    outer loop
      vertex 0 6.95944 19.3406
      vertex 0 7.47252 19.7788
      vertex 14 7.27975 19.6141
    endloop
  endfacet
  facet normal 0 0.760406 -0.649448
    outer loop
      vertex 0 6.95944 19.3406
      vertex 14 6.95944 19.3406
      vertex 14 6.52123 18.8275
    endloop
  endfacet
  facet normal 0 0.649447 -0.760407
    outer loop
      vertex 0 6.95944 19.3406
      vertex 14 7.27975 19.6141
      vertex 14 6.95944 19.3406
    endloop
  endfacet
  facet normal -0 0.649448 0.760406
    outer loop
      vertex 0 7.47252 12.8212
      vertex 14 6.95944 13.2594
      vertex 14 7.47252 12.8212
    endloop
  endfacet
  facet normal 0 0.522498 0.852641
    outer loop
      vertex 0 7.47252 12.8212
      vertex 14 7.47252 12.8212
      vertex 0 8.04784 12.4687
    endloop
  endfacet
  facet normal 0 0.5225 -0.852639
    outer loop
      vertex 0 7.47252 19.7788
      vertex 0 8.04784 20.1313
      vertex 14 8.04784 20.1313
    endloop
  endfacet
  facet normal 0 0.649448 -0.760406
    outer loop
      vertex 0 7.47252 19.7788
      vertex 14 7.47252 19.7788
      vertex 14 7.27975 19.6141
    endloop
  endfacet
  facet normal 0 0.5225 -0.852639
    outer loop
      vertex 0 7.47252 19.7788
      vertex 14 8.04784 20.1313
      vertex 14 7.47252 19.7788
    endloop
  endfacet
  facet normal -1 0 0
    outer loop
      vertex 0 7.74418 23.2427
      vertex 0 8.67123 20.3895
      vertex 0 8.04784 20.1313
    endloop
  endfacet
  facet normal -1 0 0
    outer loop
      vertex 0 7.74418 23.2427
      vertex 0 8.85803 23.5101
      vertex 0 8.67123 20.3895
    endloop
  endfacet
  facet normal 0 -0.382683 0.92388
    outer loop
      vertex 0 7.74418 23.2427
      vertex 14 6.68587 22.8043
      vertex 14 7.74418 23.2427
    endloop
  endfacet
  facet normal 0 -0.233445 0.97237
    outer loop
      vertex 0 7.74418 23.2427
      vertex 14 7.74418 23.2427
      vertex 0 8.85803 23.5101
    endloop
  endfacet
  facet normal -0 0.522498 0.852641
    outer loop
      vertex 0 8.04784 12.4687
      vertex 14 7.47252 12.8212
      vertex 14 8.04784 12.4687
    endloop
  endfacet
  facet normal 0 0.382683 0.92388
    outer loop
      vertex 0 8.04784 12.4687
      vertex 14 8.04784 12.4687
      vertex 0 8.67123 12.2105
    endloop
  endfacet
  facet normal 0 0.382681 -0.923881
    outer loop
      vertex 0 8.04784 20.1313
      vertex 0 8.67123 20.3895
      vertex 14 8.67123 20.3895
    endloop
  endfacet
  facet normal 0 0.382681 -0.923881
    outer loop
      vertex 0 8.04784 20.1313
      vertex 14 8.67123 20.3895
      vertex 14 8.04784 20.1313
    endloop
  endfacet
  facet normal -0 0.382683 0.92388
    outer loop
      vertex 0 8.67123 12.2105
      vertex 14 8.04784 12.4687
      vertex 14 8.67123 12.2105
    endloop
  endfacet
  facet normal 0 0.233446 0.97237
    outer loop
      vertex 0 8.67123 12.2105
      vertex 14 8.67123 12.2105
      vertex 0 9.32733 12.0529
    endloop
  endfacet
  facet normal -1 0 0
    outer loop
      vertex 0 8.67123 20.3895
      vertex 0 8.85803 23.5101
      vertex 0 9.32733 20.5471
    endloop
  endfacet
  facet normal 0 0.233445 -0.97237
    outer loop
      vertex 0 8.67123 20.3895
      vertex 0 9.32733 20.5471
      vertex 14 9.32733 20.5471
    endloop
  endfacet
  facet normal 0 0.233445 -0.97237
    outer loop
      vertex 0 8.67123 20.3895
      vertex 14 9.32733 20.5471
      vertex 14 8.67123 20.3895
    endloop
  endfacet
  facet normal -1 0 0
    outer loop
      vertex 0 8.85803 23.5101
      vertex 0 10 23.6
      vertex 0 9.32733 20.5471
    endloop
  endfacet
  facet normal 0 -0.233445 0.97237
    outer loop
      vertex 0 8.85803 23.5101
      vertex 14 7.74418 23.2427
      vertex 14 8.85803 23.5101
    endloop
  endfacet
  facet normal 0 -0.0784583 0.996917
    outer loop
      vertex 0 8.85803 23.5101
      vertex 14 8.85803 23.5101
      vertex 0 10 23.6
    endloop
  endfacet
  facet normal -0 0.233446 0.97237
    outer loop
      vertex 0 9.32733 12.0529
      vertex 14 8.67123 12.2105
      vertex 14 9.32733 12.0529
    endloop
  endfacet
  facet normal 0 0.078458 0.996917
    outer loop
      vertex 0 9.32733 12.0529
      vertex 14 9.32733 12.0529
      vertex 0 10 12
    endloop
  endfacet
  facet normal 0 0.0784594 -0.996917
    outer loop
      vertex 0 9.32733 20.5471
      vertex 0 10 20.6
      vertex 14 10 20.6
    endloop
  endfacet
  facet normal -1 0 0
    outer loop
      vertex 0 9.32733 20.5471
      vertex 0 10 23.6
      vertex 0 10 20.6
    endloop
  endfacet
  facet normal 0 0.0784594 -0.996917
    outer loop
      vertex 0 9.32733 20.5471
      vertex 14 10 20.6
      vertex 14 9.32733 20.5471
    endloop
  endfacet
  facet normal 0 1 0
    outer loop
      vertex 10.0909 17 5.99569
      vertex 10.25 17 7
      vertex 12 17 2
    endloop
  endfacet
  facet normal -0.987688 0 -0.156435
    outer loop
      vertex 10.0909 17 8.0043
      vertex 10.25 17 7
      vertex 10.25 3 7
    endloop
  endfacet
  facet normal 0 1 0
    outer loop
      vertex 10.0909 17 8.0043
      vertex 12 17 12
      vertex 10.25 17 7
    endloop
  endfacet
  facet normal -0.987688 0 0.156435
    outer loop
      vertex 10.0909 3 5.99569
      vertex 10.25 17 7
      vertex 10.0909 17 5.99569
    endloop
  endfacet
  facet normal -0.987688 0 0.156435
    outer loop
      vertex 10.0909 3 5.99569
      vertex 10.25 3 7
      vertex 10.25 17 7
    endloop
  endfacet
  facet normal 0 -1 0
    outer loop
      vertex 10.0909 3 5.99569
      vertex 12 3 2
      vertex 10.25 3 7
    endloop
  endfacet
  facet normal -0.987688 -0 -0.156435
    outer loop
      vertex 10.0909 3 8.0043
      vertex 10.0909 17 8.0043
      vertex 10.25 3 7
    endloop
  endfacet
  facet normal 0 -1 0
    outer loop
      vertex 10.0909 3 8.0043
      vertex 10.25 3 7
      vertex 12 3 12
    endloop
  endfacet
  facet normal 0 1 -0
    outer loop
      vertex 10.25 17 7
      vertex 12 17 12
      vertex 12 17 2
    endloop
  endfacet
  facet normal 0 -1 0
    outer loop
      vertex 10.25 3 7
      vertex 12 3 2
      vertex 12 3 12
    endloop
  endfacet
  facet normal -1 -0 0
    outer loop
      vertex 12 0 2
      vertex 12 0 12
      vertex 12 3 12
    endloop
  endfacet
  facet normal -1 0 0
    outer loop
      vertex 12 0 2
      vertex 12 3 12
      vertex 12 3 2
    endloop
  endfacet
  facet normal 0 -1 0
    outer loop
      vertex 12 0 2
      vertex 14 0 0
      vertex 14 0 14
    endloop
  endfacet
  facet normal 0 -1 0
    outer loop
      vertex 12 0 2
      vertex 14 0 14
      vertex 12 0 12
    endloop
  endfacet
  facet normal -1 -0 0
    outer loop
      vertex 12 17 2
      vertex 12 17 12
      vertex 12 20 12
    endloop
  endfacet
  facet normal -1 0 0
    outer loop
      vertex 12 17 2
      vertex 12 20 12
      vertex 12 20 2
    endloop
  endfacet
  facet normal 0 1 0
    outer loop
      vertex 12 20 2
      vertex 12 20 12
      vertex 14 20 14
    endloop
  endfacet
  facet normal 0 1 -0
    outer loop
      vertex 12 20 2
      vertex 14 20 14
      vertex 14 20 0
    endloop
  endfacet
  facet normal 1 0 0
    outer loop
      vertex 14 0 0
      vertex 14 10 12
      vertex 14 9.32733 12.0529
    endloop
  endfacet
  facet normal 1 0 0
    outer loop
      vertex 14 0 0
      vertex 14 20 0
      vertex 14 10 12
    endloop
  endfacet
  facet normal 1 0 0
    outer loop
      vertex 14 0 0
      vertex 14 7.47252 12.8212
      vertex 14 0 14
    endloop
  endfacet
  facet normal 1 0 0
    outer loop
      vertex 14 0 0
      vertex 14 8.04784 12.4687
      vertex 14 7.47252 12.8212
    endloop
  endfacet
  facet normal 1 0 0
    outer loop
      vertex 14 0 0
      vertex 14 8.67123 12.2105
      vertex 14 8.04784 12.4687
    endloop
  endfacet
  facet normal 1 0 0
    outer loop
      vertex 14 0 0
      vertex 14 9.32733 12.0529
      vertex 14 8.67123 12.2105
    endloop
  endfacet
  facet normal 1 -9.91072e-05 6.17093e-05
    outer loop
      vertex 14 0 14
      vertex 14 3.49565 19.6141
      vertex 14 4.09418 20.5908
    endloop
  endfacet
  facet normal 1 0 0
    outer loop
      vertex 14 0 14
      vertex 14 5.7 16.3
      vertex 14 3.49565 19.6141
    endloop
  endfacet
  facet normal 1 0 0
    outer loop
      vertex 14 0 14
      vertex 14 5.75294 15.6273
      vertex 14 5.7 16.3
    endloop
  endfacet
  facet normal 1 0 0
    outer loop
      vertex 14 0 14
      vertex 14 5.91046 14.9712
      vertex 14 5.75294 15.6273
    endloop
  endfacet
  facet normal 1 0 0
    outer loop
      vertex 14 0 14
      vertex 14 6.16867 14.3478
      vertex 14 5.91046 14.9712
    endloop
  endfacet
  facet normal 1 -0 0
    outer loop
      vertex 14 0 14
      vertex 14 6.52123 13.7725
      vertex 14 6.16867 14.3478
    endloop
  endfacet
  facet normal 1 0 0
    outer loop
      vertex 14 0 14
      vertex 14 6.95944 13.2594
      vertex 14 6.52123 13.7725
    endloop
  endfacet
  facet normal 1 0 0
    outer loop
      vertex 14 0 14
      vertex 14 7.47252 12.8212
      vertex 14 6.95944 13.2594
    endloop
  endfacet
  facet normal 1 -0 0
    outer loop
      vertex 14 10 12
      vertex 14 20 0
      vertex 14 10.6727 12.0529
    endloop
  endfacet
  facet normal 1 2.50187e-08 3.17891e-07
    outer loop
      vertex 14 10 20.6
      vertex 14 10.6727 20.5471
      vertex 14 10 23.6
    endloop
  endfacet
  facet normal 1 7.9184e-08 3.29826e-07
    outer loop
      vertex 14 10 23.6
      vertex 14 10.6727 20.5471
      vertex 14 11.3288 20.3895
    endloop
  endfacet
  facet normal 1 1.48501e-07 3.58515e-07
    outer loop
      vertex 14 10 23.6
      vertex 14 11.3288 20.3895
      vertex 14 11.9522 20.1313
    endloop
  endfacet
  facet normal 1 3.33712e-08 2.93721e-07
    outer loop
      vertex 14 10 23.6
      vertex 14 11.9522 20.1313
      vertex 14 16.5043 19.6141
    endloop
  endfacet
  facet normal 1 2.1605e-08 2.7452e-07
    outer loop
      vertex 14 10 23.6
      vertex 14 16.5043 19.6141
      vertex 14 11.142 23.5101
    endloop
  endfacet
  facet normal 1 -0 0
    outer loop
      vertex 14 10.6727 12.0529
      vertex 14 20 0
      vertex 14 11.3288 12.2105
    endloop
  endfacet
  facet normal 1 8.777e-08 3.65588e-07
    outer loop
      vertex 14 11.142 23.5101
      vertex 14 16.5043 19.6141
      vertex 14 12.2558 23.2427
    endloop
  endfacet
  facet normal 1 -0 0
    outer loop
      vertex 14 11.3288 12.2105
      vertex 14 20 0
      vertex 14 11.9522 12.4687
    endloop
  endfacet
  facet normal 1 -0 0
    outer loop
      vertex 14 11.9522 12.4687
      vertex 14 20 0
      vertex 14 12.5275 12.8212
    endloop
  endfacet
  facet normal 1 0 0
    outer loop
      vertex 14 11.9522 20.1313
      vertex 14 12.5275 19.7788
      vertex 14 16.5043 19.6141
    endloop
  endfacet
  facet normal 1 2.1138e-07 5.10317e-07
    outer loop
      vertex 14 12.2558 23.2427
      vertex 14 16.5043 19.6141
      vertex 14 13.3141 22.8043
    endloop
  endfacet
  facet normal 1 0 0
    outer loop
      vertex 14 12.5275 12.8212
      vertex 14 20 0
      vertex 14 20 14
    endloop
  endfacet
  facet normal 1 0 0
    outer loop
      vertex 14 12.5275 12.8212
      vertex 14 20 14
      vertex 14 13.0406 13.2594
    endloop
  endfacet
  facet normal 1 0 0
    outer loop
      vertex 14 12.5275 19.7788
      vertex 14 12.7202 19.6141
      vertex 14 16.5043 19.6141
    endloop
  endfacet
  facet normal 1 0 -0
    outer loop
      vertex 14 12.7202 19.6141
      vertex 14 13.0406 19.3406
      vertex 14 16.5043 19.6141
    endloop
  endfacet
  facet normal 1 0 0
    outer loop
      vertex 14 13.0406 13.2594
      vertex 14 20 14
      vertex 14 13.4788 13.7725
    endloop
  endfacet
  facet normal 1 0 0
    outer loop
      vertex 14 13.0406 19.3406
      vertex 14 13.4788 18.8275
      vertex 14 16.5043 19.6141
    endloop
  endfacet
  facet normal 1 4.73113e-07 7.7205e-07
    outer loop
      vertex 14 13.3141 22.8043
      vertex 14 16.5043 19.6141
      vertex 14 14.2908 22.2058
    endloop
  endfacet
  facet normal 1 0 0
    outer loop
      vertex 14 13.4788 13.7725
      vertex 14 20 14
      vertex 14 13.8313 14.3478
    endloop
  endfacet
  facet normal 1 0 0
    outer loop
      vertex 14 13.4788 18.8275
      vertex 14 13.8313 18.2522
      vertex 14 16.5043 19.6141
    endloop
  endfacet
  facet normal 1 -0 0
    outer loop
      vertex 14 13.8313 14.3478
      vertex 14 20 14
      vertex 14 14.0895 14.9712
    endloop
  endfacet
  facet normal 1 0 0
    outer loop
      vertex 14 13.8313 18.2522
      vertex 14 14.0895 17.6288
      vertex 14 16.5043 19.6141
    endloop
  endfacet
  facet normal 1 0 0
    outer loop
      vertex 14 14.0895 14.9712
      vertex 14 20 14
      vertex 14 14.2471 15.6273
    endloop
  endfacet
  facet normal 1 0 0
    outer loop
      vertex 14 14.0895 17.6288
      vertex 14 14.2471 16.9727
      vertex 14 16.5043 19.6141
    endloop
  endfacet
  facet normal 1 0 0
    outer loop
      vertex 14 14.2471 15.6273
      vertex 14 20 14
      vertex 14 14.3 16.3
    endloop
  endfacet
  facet normal 1 0 0
    outer loop
      vertex 14 14.2471 16.9727
      vertex 14 14.3 16.3
      vertex 14 16.5043 19.6141
    endloop
  endfacet
  facet normal 1 1.16164e-06 1.36011e-06
    outer loop
      vertex 14 14.2908 22.2058
      vertex 14 16.5043 19.6141
      vertex 14 15.1619 21.4619
    endloop
  endfacet
  facet normal 1 -0 0
    outer loop
      vertex 14 14.3 16.3
      vertex 14 20 14
      vertex 14 16.5043 19.6141
    endloop
  endfacet
  facet normal 1 4.04684e-06 3.45633e-06
    outer loop
      vertex 14 15.1619 21.4619
      vertex 14 16.5043 19.6141
      vertex 14 15.9058 20.5908
    endloop
  endfacet
  facet normal 1 9.91055e-05 6.17083e-05
    outer loop
      vertex 14 15.9058 20.5908
      vertex 14 16.5043 19.6141
      vertex 14 20 14
    endloop
  endfacet
  facet normal 1 -2.1605e-08 2.7452e-07
    outer loop
      vertex 14 3.49565 19.6141
      vertex 14 10 23.6
      vertex 14 8.85803 23.5101
    endloop
  endfacet
  facet normal 1 -4.04684e-06 3.45633e-06
    outer loop
      vertex 14 3.49565 19.6141
      vertex 14 4.83812 21.4619
      vertex 14 4.09418 20.5908
    endloop
  endfacet
  facet normal 1 0 0
    outer loop
      vertex 14 3.49565 19.6141
      vertex 14 5.7 16.3
      vertex 14 5.75294 16.9727
    endloop
  endfacet
  facet normal 1 -1.16164e-06 1.36011e-06
    outer loop
      vertex 14 3.49565 19.6141
      vertex 14 5.70917 22.2058
      vertex 14 4.83812 21.4619
    endloop
  endfacet
  facet normal 1 0 0
    outer loop
      vertex 14 3.49565 19.6141
      vertex 14 5.75294 16.9727
      vertex 14 5.91046 17.6288
    endloop
  endfacet
  facet normal 1 0 0
    outer loop
      vertex 14 3.49565 19.6141
      vertex 14 5.91046 17.6288
      vertex 14 6.16867 18.2522
    endloop
  endfacet
  facet normal 1 0 0
    outer loop
      vertex 14 3.49565 19.6141
      vertex 14 6.16867 18.2522
      vertex 14 6.52123 18.8275
    endloop
  endfacet
  facet normal 1 0 0
    outer loop
      vertex 14 3.49565 19.6141
      vertex 14 6.52123 18.8275
      vertex 14 6.95944 19.3406
    endloop
  endfacet
  facet normal 1 -4.73113e-07 7.7205e-07
    outer loop
      vertex 14 3.49565 19.6141
      vertex 14 6.68587 22.8043
      vertex 14 5.70917 22.2058
    endloop
  endfacet
  facet normal 1 -0 0
    outer loop
      vertex 14 3.49565 19.6141
      vertex 14 6.95944 19.3406
      vertex 14 7.27975 19.6141
    endloop
  endfacet
  facet normal 1 0 0
    outer loop
      vertex 14 3.49565 19.6141
      vertex 14 7.27975 19.6141
      vertex 14 7.47252 19.7788
    endloop
  endfacet
  facet normal 1 -1.06232e-08 2.56599e-07
    outer loop
      vertex 14 3.49565 19.6141
      vertex 14 7.47252 19.7788
      vertex 14 10 23.6
    endloop
  endfacet
  facet normal 1 -2.1138e-07 5.10317e-07
    outer loop
      vertex 14 3.49565 19.6141
      vertex 14 7.74418 23.2427
      vertex 14 6.68587 22.8043
    endloop
  endfacet
  facet normal 1 -8.777e-08 3.65588e-07
    outer loop
      vertex 14 3.49565 19.6141
      vertex 14 8.85803 23.5101
      vertex 14 7.74418 23.2427
    endloop
  endfacet
  facet normal 1 -2.57182e-07 4.19681e-07
    outer loop
      vertex 14 7.47252 19.7788
      vertex 14 8.04784 20.1313
      vertex 14 10 23.6
    endloop
  endfacet
  facet normal 1 -1.48501e-07 3.58515e-07
    outer loop
      vertex 14 8.04784 20.1313
      vertex 14 8.67123 20.3895
      vertex 14 10 23.6
    endloop
  endfacet
  facet normal 1 -7.9184e-08 3.29826e-07
    outer loop
      vertex 14 8.67123 20.3895
      vertex 14 9.32733 20.5471
      vertex 14 10 23.6
    endloop
  endfacet
  facet normal 1 -2.50187e-08 3.17891e-07
    outer loop
      vertex 14 9.32733 20.5471
      vertex 14 10 20.6
      vertex 14 10 23.6
    endloop
  endfacet
  facet normal 0 -1 0
    outer loop
      vertex 2 0 12
      vertex 12 0 12
      vertex 14 0 14
    endloop
  endfacet
  facet normal 0 0 -1
    outer loop
      vertex 2 0 12
      vertex 12 3 12
      vertex 12 0 12
    endloop
  endfacet
  facet normal -0 0 -1
    outer loop
      vertex 2 0 12
      vertex 2 3 12
      vertex 12 3 12
    endloop
  endfacet
  facet normal 1 -0 0
    outer loop
      vertex 2 0 12
      vertex 2 3 2
      vertex 2 3 12
    endloop
  endfacet
  facet normal 0 0 1
    outer loop
      vertex 2 0 2
      vertex 12 0 2
      vertex 2 3 2
    endloop
  endfacet
  facet normal 1 0 0
    outer loop
      vertex 2 0 2
      vertex 2 3 2
      vertex 2 0 12
    endloop
  endfacet
  facet normal 0 1 0
    outer loop
      vertex 2 17 12
      vertex 12 17 12
      vertex 7 17 10.25
    endloop
  endfacet
  facet normal 0 0 -1
    outer loop
      vertex 2 17 12
      vertex 12 20 12
      vertex 12 17 12
    endloop
  endfacet
  facet normal -0 0 -1
    outer loop
      vertex 2 17 12
      vertex 2 20 12
      vertex 12 20 12
    endloop
  endfacet
  facet normal 1 -0 0
    outer loop
      vertex 2 17 12
      vertex 2 20 2
      vertex 2 20 12
    endloop
  endfacet
  facet normal 0 1 -0
    outer loop
      vertex 2 17 12
      vertex 3.90907 17 8.0043
      vertex 3.75 17 7
    endloop
  endfacet
  facet normal 0 1 -0
    outer loop
      vertex 2 17 12
      vertex 4.37069 17 8.9103
      vertex 3.90907 17 8.0043
    endloop
  endfacet
  facet normal 0 1 -0
    outer loop
      vertex 2 17 12
      vertex 5.0897 17 9.6293
      vertex 4.37069 17 8.9103
    endloop
  endfacet
  facet normal 0 1 -0
    outer loop
      vertex 2 17 12
      vertex 5.99569 17 10.0909
      vertex 5.0897 17 9.6293
    endloop
  endfacet
  facet normal 0 1 -0
    outer loop
      vertex 2 17 12
      vertex 7 17 10.25
      vertex 5.99569 17 10.0909
    endloop
  endfacet
  facet normal 0 0 1
    outer loop
      vertex 2 17 2
      vertex 12 17 2
      vertex 2 20 2
    endloop
  endfacet
  facet normal 0 1 0
    outer loop
      vertex 2 17 2
      vertex 2 17 12
      vertex 3.75 17 7
    endloop
  endfacet
  facet normal 1 0 0
    outer loop
      vertex 2 17 2
      vertex 2 20 2
      vertex 2 17 12
    endloop
  endfacet
  facet normal 0 1 0
    outer loop
      vertex 2 17 2
      vertex 3.75 17 7
      vertex 3.90907 17 5.99569
    endloop
  endfacet
  facet normal 0 1 0
    outer loop
      vertex 2 17 2
      vertex 3.90907 17 5.99569
      vertex 4.37069 17 5.0897
    endloop
  endfacet
  facet normal 0 1 0
    outer loop
      vertex 2 17 2
      vertex 4.37069 17 5.0897
      vertex 5.0897 17 4.37069
    endloop
  endfacet
  facet normal 0 1 0
    outer loop
      vertex 2 17 2
      vertex 5.0897 17 4.37069
      vertex 5.99569 17 3.90907
    endloop
  endfacet
  facet normal 0 1 0
    outer loop
      vertex 2 17 2
      vertex 5.99569 17 3.90907
      vertex 7 17 3.75
    endloop
  endfacet
  facet normal 0 1 0
    outer loop
      vertex 2 17 2
      vertex 7 17 3.75
      vertex 12 17 2
    endloop
  endfacet
  facet normal -0 0 1
    outer loop
      vertex 2 20 2
      vertex 12 17 2
      vertex 12 20 2
    endloop
  endfacet
  facet normal 0 1 0
    outer loop
      vertex 2 20 2
      vertex 12 20 2
      vertex 14 20 0
    endloop
  endfacet
  facet normal 0 -1 0
    outer loop
      vertex 2 3 12
      vertex 3.75 3 7
      vertex 3.90907 3 8.0043
    endloop
  endfacet
  facet normal 0 -1 0
    outer loop
      vertex 2 3 12
      vertex 3.90907 3 8.0043
      vertex 4.37069 3 8.9103
    endloop
  endfacet
  facet normal 0 -1 0
    outer loop
      vertex 2 3 12
      vertex 4.37069 3 8.9103
      vertex 5.0897 3 9.6293
    endloop
  endfacet
  facet normal 0 -1 0
    outer loop
      vertex 2 3 12
      vertex 5.0897 3 9.6293
      vertex 5.99569 3 10.0909
    endloop
  endfacet
  facet normal 0 -1 0
    outer loop
      vertex 2 3 12
      vertex 5.99569 3 10.0909
      vertex 7 3 10.25
    endloop
  endfacet
  facet normal 0 -1 0
    outer loop
      vertex 2 3 12
      vertex 7 3 10.25
      vertex 12 3 12
    endloop
  endfacet
  facet normal -0 0 1
    outer loop
      vertex 2 3 2
      vertex 12 0 2
      vertex 12 3 2
    endloop
  endfacet
  facet normal 0 -1 0
    outer loop
      vertex 2 3 2
      vertex 12 3 2
      vertex 7 3 3.75
    endloop
  endfacet
  facet normal 0 -1 0
    outer loop
      vertex 2 3 2
      vertex 3.75 3 7
      vertex 2 3 12
    endloop
  endfacet
  facet normal 0 -1 -0
    outer loop
      vertex 2 3 2
      vertex 3.90907 3 5.99569
      vertex 3.75 3 7
    endloop
  endfacet
  facet normal 0 -1 -0
    outer loop
      vertex 2 3 2
      vertex 4.37069 3 5.0897
      vertex 3.90907 3 5.99569
    endloop
  endfacet
  facet normal 0 -1 -0
    outer loop
      vertex 2 3 2
      vertex 5.0897 3 4.37069
      vertex 4.37069 3 5.0897
    endloop
  endfacet
  facet normal 0 -1 -0
    outer loop
      vertex 2 3 2
      vertex 5.99569 3 3.90907
      vertex 5.0897 3 4.37069
    endloop
  endfacet
  facet normal 0 -1 -0
    outer loop
      vertex 2 3 2
      vertex 7 3 3.75
      vertex 5.99569 3 3.90907
    endloop
  endfacet
  facet normal 0.987688 0 -0.156434
    outer loop
      vertex 3.75 17 7
      vertex 3.90907 17 8.0043
      vertex 3.90907 3 8.0043
    endloop
  endfacet
  facet normal 0.987688 0 -0.156434
    outer loop
      vertex 3.75 3 7
      vertex 3.75 17 7
      vertex 3.90907 3 8.0043
    endloop
  endfacet
  facet normal 0.987688 -0 0.156434
    outer loop
      vertex 3.75 3 7
      vertex 3.90907 17 5.99569
      vertex 3.75 17 7
    endloop
  endfacet
  facet normal 0.987688 0 0.156434
    outer loop
      vertex 3.75 3 7
      vertex 3.90907 3 5.99569
      vertex 3.90907 17 5.99569
    endloop
  endfacet
  facet normal 0.891007 0 -0.45399
    outer loop
      vertex 3.90907 17 8.0043
      vertex 4.37069 17 8.9103
      vertex 4.37069 3 8.9103
    endloop
  endfacet
  facet normal 0.891007 -0 0.45399
    outer loop
      vertex 3.90907 3 5.99569
      vertex 4.37069 17 5.0897
      vertex 3.90907 17 5.99569
    endloop
  endfacet
  facet normal 0.891007 0 0.45399
    outer loop
      vertex 3.90907 3 5.99569
      vertex 4.37069 3 5.0897
      vertex 4.37069 17 5.0897
    endloop
  endfacet
  facet normal 0.891007 0 -0.45399
    outer loop
      vertex 3.90907 3 8.0043
      vertex 3.90907 17 8.0043
      vertex 4.37069 3 8.9103
    endloop
  endfacet
  facet normal 0.707107 0 -0.707107
    outer loop
      vertex 4.37069 17 8.9103
      vertex 5.0897 17 9.6293
      vertex 5.0897 3 9.6293
    endloop
  endfacet
  facet normal 0.707107 -0 0.707107
    outer loop
      vertex 4.37069 3 5.0897
      vertex 5.0897 17 4.37069
      vertex 4.37069 17 5.0897
    endloop
  endfacet
  facet normal 0.707107 0 0.707107
    outer loop
      vertex 4.37069 3 5.0897
      vertex 5.0897 3 4.37069
      vertex 5.0897 17 4.37069
    endloop
  endfacet
  facet normal 0.707107 0 -0.707107
    outer loop
      vertex 4.37069 3 8.9103
      vertex 4.37069 17 8.9103
      vertex 5.0897 3 9.6293
    endloop
  endfacet
  facet normal 0.45399 0 0.891007
    outer loop
      vertex 5.0897 17 4.37069
      vertex 5.99569 3 3.90907
      vertex 5.99569 17 3.90907
    endloop
  endfacet
  facet normal 0.45399 0 0.891007
    outer loop
      vertex 5.0897 3 4.37069
      vertex 5.99569 3 3.90907
      vertex 5.0897 17 4.37069
    endloop
  endfacet
  facet normal 0.45399 0 -0.891007
    outer loop
      vertex 5.0897 3 9.6293
      vertex 5.0897 17 9.6293
      vertex 5.99569 17 10.0909
    endloop
  endfacet
  facet normal 0.45399 0 -0.891007
    outer loop
      vertex 5.0897 3 9.6293
      vertex 5.99569 17 10.0909
      vertex 5.99569 3 10.0909
    endloop
  endfacet
  facet normal 0.156434 0 0.987688
    outer loop
      vertex 5.99569 17 3.90907
      vertex 7 3 3.75
      vertex 7 17 3.75
    endloop
  endfacet
  facet normal 0.156435 0 -0.987688
    outer loop
      vertex 5.99569 3 10.0909
      vertex 5.99569 17 10.0909
      vertex 7 17 10.25
    endloop
  endfacet
  facet normal 0.156435 0 -0.987688
    outer loop
      vertex 5.99569 3 10.0909
      vertex 7 17 10.25
      vertex 7 3 10.25
    endloop
  endfacet
  facet normal 0.156434 0 0.987688
    outer loop
      vertex 5.99569 3 3.90907
      vertex 7 3 3.75
      vertex 5.99569 17 3.90907
    endloop
  endfacet
  facet normal 0 1 0
    outer loop
      vertex 7 17 10.25
      vertex 12 17 12
      vertex 8.0043 17 10.0909
    endloop
  endfacet
  facet normal 0 1 0
    outer loop
      vertex 7 17 3.75
      vertex 8.0043 17 3.90907
      vertex 12 17 2
    endloop
  endfacet
  facet normal -0.156434 0 0.987688
    outer loop
      vertex 7 17 3.75
      vertex 8.0043 3 3.90907
      vertex 8.0043 17 3.90907
    endloop
  endfacet
  facet normal -0.156435 0 -0.987688
    outer loop
      vertex 7 3 10.25
      vertex 7 17 10.25
      vertex 8.0043 17 10.0909
    endloop
  endfacet
  facet normal -0.156435 0 -0.987688
    outer loop
      vertex 7 3 10.25
      vertex 8.0043 17 10.0909
      vertex 8.0043 3 10.0909
    endloop
  endfacet
  facet normal 0 -1 0
    outer loop
      vertex 7 3 10.25
      vertex 8.0043 3 10.0909
      vertex 12 3 12
    endloop
  endfacet
  facet normal 0 -1 0
    outer loop
      vertex 7 3 3.75
      vertex 12 3 2
      vertex 8.0043 3 3.90907
    endloop
  endfacet
  facet normal -0.156434 0 0.987688
    outer loop
      vertex 7 3 3.75
      vertex 8.0043 3 3.90907
      vertex 7 17 3.75
    endloop
  endfacet
  facet normal 0 1 0
    outer loop
      vertex 8.0043 17 10.0909
      vertex 12 17 12
      vertex 8.9103 17 9.6293
    endloop
  endfacet
  facet normal 0 1 0
    outer loop
      vertex 8.0043 17 3.90907
      vertex 8.9103 17 4.37069
      vertex 12 17 2
    endloop
  endfacet
  facet normal -0.45399 0 0.891007
    outer loop
      vertex 8.0043 17 3.90907
      vertex 8.9103 3 4.37069
      vertex 8.9103 17 4.37069
    endloop
  endfacet
  facet normal -0.45399 0 -0.891007
    outer loop
      vertex 8.0043 3 10.0909
      vertex 8.0043 17 10.0909
      vertex 8.9103 17 9.6293
    endloop
  endfacet
  facet normal -0.45399 0 -0.891007
    outer loop
      vertex 8.0043 3 10.0909
      vertex 8.9103 17 9.6293
      vertex 8.9103 3 9.6293
    endloop
  endfacet
  facet normal 0 -1 0
    outer loop
      vertex 8.0043 3 10.0909
      vertex 8.9103 3 9.6293
      vertex 12 3 12
    endloop
  endfacet
  facet normal 0 -1 0
    outer loop
      vertex 8.0043 3 3.90907
      vertex 12 3 2
      vertex 8.9103 3 4.37069
    endloop
  endfacet
  facet normal -0.45399 0 0.891007
    outer loop
      vertex 8.0043 3 3.90907
      vertex 8.9103 3 4.37069
      vertex 8.0043 17 3.90907
    endloop
  endfacet
  facet normal 0 1 0
    outer loop
      vertex 8.9103 17 4.37069
      vertex 9.6293 17 5.0897
      vertex 12 17 2
    endloop
  endfacet
  facet normal 0 1 0
    outer loop
      vertex 8.9103 17 9.6293
      vertex 12 17 12
      vertex 9.6293 17 8.9103
    endloop
  endfacet
  facet normal -0.707107 0 -0.707107
    outer loop
      vertex 8.9103 17 9.6293
      vertex 9.6293 17 8.9103
      vertex 9.6293 3 8.9103
    endloop
  endfacet
  facet normal 0 -1 0
    outer loop
      vertex 8.9103 3 4.37069
      vertex 12 3 2
      vertex 9.6293 3 5.0897
    endloop
  endfacet
  facet normal -0.707107 0 0.707107
    outer loop
      vertex 8.9103 3 4.37069
      vertex 9.6293 17 5.0897
      vertex 8.9103 17 4.37069
    endloop
  endfacet
  facet normal -0.707107 0 0.707107
    outer loop
      vertex 8.9103 3 4.37069
      vertex 9.6293 3 5.0897
      vertex 9.6293 17 5.0897
    endloop
  endfacet
  facet normal -0.707107 -0 -0.707107
    outer loop
      vertex 8.9103 3 9.6293
      vertex 8.9103 17 9.6293
      vertex 9.6293 3 8.9103
    endloop
  endfacet
  facet normal 0 -1 0
    outer loop
      vertex 8.9103 3 9.6293
      vertex 9.6293 3 8.9103
      vertex 12 3 12
    endloop
  endfacet
  facet normal 0 1 0
    outer loop
      vertex 9.6293 17 5.0897
      vertex 10.0909 17 5.99569
      vertex 12 17 2
    endloop
  endfacet
  facet normal -0.891007 0 -0.45399
    outer loop
      vertex 9.6293 17 8.9103
      vertex 10.0909 17 8.0043
      vertex 10.0909 3 8.0043
    endloop
  endfacet
  facet normal 0 1 0
    outer loop
      vertex 9.6293 17 8.9103
      vertex 12 17 12
      vertex 10.0909 17 8.0043
    endloop
  endfacet
  facet normal -0.891007 0 0.45399
    outer loop
      vertex 9.6293 3 5.0897
      vertex 10.0909 17 5.99569
      vertex 9.6293 17 5.0897
    endloop
  endfacet
  facet normal -0.891007 0 0.45399
    outer loop
      vertex 9.6293 3 5.0897
      vertex 10.0909 3 5.99569
      vertex 10.0909 17 5.99569
    endloop
  endfacet
  facet normal 0 -1 0
    outer loop
      vertex 9.6293 3 5.0897
      vertex 12 3 2
      vertex 10.0909 3 5.99569
    endloop
  endfacet
  facet normal 0 -1 0
    outer loop
      vertex 9.6293 3 8.9103
      vertex 10.0909 3 8.0043
      vertex 12 3 12
    endloop
  endfacet
  facet normal -0.891007 -0 -0.45399
    outer loop
      vertex 9.6293 3 8.9103
      vertex 9.6293 17 8.9103
      vertex 10.0909 3 8.0043
    endloop
  endfacet
endsolid model
